<svg width="125" height="125" viewBox="0 0 125 125" fill="none" xmlns="http://www.w3.org/2000/svg">
<path d="M0 17C0 7.61116 7.61116 0 17 0H108C117.389 0 125 7.61116 125 17V108C125 117.389 117.389 125 108 125H17C7.61116 125 0 117.389 0 108V17Z" fill="#06FFF2"/>
<path d="M30 62.4869C31.688 60.1275 33.3759 57.7469 35.1357 55.4212C35.6703 54.7498 35.9418 53.9064 35.8995 53.0491C35.832 50.4871 35.8489 47.9292 35.8404 45.3672C35.8404 44.0714 36.2624 43.4636 37.4989 43.0795C40.1364 42.2353 42.778 41.4291 45.4029 40.547C45.8109 40.409 46.1681 40.1516 46.4283 39.8083C48.0572 37.5924 49.6397 35.3469 51.2348 33.1099C52.0535 31.966 52.716 31.755 54.0748 32.2066C56.6954 33.0803 59.316 33.9667 61.9493 34.8108C62.3212 34.9206 62.7168 34.9206 63.0887 34.8108C65.7219 33.9667 68.3425 33.0719 70.9631 32.1939C72.2629 31.7718 72.9423 31.9871 73.7483 33.1099C75.3603 35.3596 76.9555 37.6262 78.5928 39.8632C78.8295 40.1726 79.1525 40.4046 79.5212 40.5301C82.146 41.3743 84.7877 42.2184 87.421 43.0626C88.7545 43.4847 89.1553 44.0376 89.1511 45.4221C89.1511 48.1741 89.1005 50.9092 89.1174 53.6738C89.1279 54.1052 89.2627 54.5243 89.5056 54.881C91.1177 57.1307 92.7761 59.3508 94.4177 61.5837C95.1899 62.6347 95.1941 63.3564 94.4177 64.4074C92.7803 66.6402 91.1219 68.8604 89.5056 71.1101C89.2621 71.4664 89.1272 71.8858 89.1174 72.3173C89.1174 75.0862 89.1174 77.8593 89.1511 80.6323C89.1511 81.9239 88.7291 82.5191 87.4843 82.9158C84.851 83.76 82.2178 84.6042 79.5718 85.4146C79.1306 85.5411 78.7499 85.823 78.5 86.2081C76.9259 88.4409 75.335 90.6569 73.7483 92.8728C72.9423 93.9998 72.2586 94.2235 70.9673 93.7887C68.3425 92.915 65.7219 92.0244 63.0929 91.176C62.7202 91.0622 62.322 91.0622 61.9493 91.176C59.316 92.0202 56.6997 92.9024 54.0748 93.7761C52.6949 94.2361 52.0619 94.0251 51.2011 92.8222C49.6186 90.6062 48.0445 88.3734 46.4325 86.1786C46.1707 85.8369 45.814 85.58 45.4071 85.4399C42.778 84.5957 40.1364 83.7516 37.4989 82.9074C36.2878 82.5233 35.8362 81.9113 35.8404 80.6155C35.8404 77.8255 35.8868 75.0313 35.8742 72.2413C35.866 71.8493 35.7444 71.4681 35.5239 71.1439C33.9541 68.9659 32.3463 66.8133 30.7596 64.648C30.4853 64.2766 30.2532 63.8798 30 63.4957V62.4869ZM71.2079 36.2206L70.5875 36.419C68.2033 37.2083 65.8148 37.9934 63.4347 38.8038C62.8172 39.0276 62.1407 39.0276 61.5231 38.8038C59.4511 38.082 57.358 37.4067 55.2776 36.6934L53.7879 36.2037C52.197 38.4323 50.6272 40.6103 49.0784 42.8051C48.702 43.3698 48.1387 43.7837 47.4875 43.9743C45.1032 44.7087 42.74 45.4896 40.3558 46.2156C40.255 46.2284 40.158 46.2614 40.0704 46.3128C39.9828 46.3641 39.9065 46.4327 39.8462 46.5143C39.7858 46.596 39.7426 46.6891 39.7193 46.7879C39.6959 46.8867 39.6928 46.9892 39.7101 47.0893C39.7566 49.5627 39.7396 52.0403 39.7818 54.5138C39.8028 55.2352 39.5682 55.9409 39.1193 56.506C37.6255 58.5025 36.1653 60.5327 34.6673 62.5249C34.6046 62.5845 34.5547 62.6562 34.5205 62.7356C34.4864 62.8151 34.4688 62.9006 34.4688 62.9871C34.4688 63.0736 34.4864 63.1591 34.5205 63.2386C34.5547 63.3181 34.6046 63.3897 34.6673 63.4493C36.1653 65.4457 37.6213 67.4717 39.1193 69.464C39.5752 70.0498 39.8098 70.7777 39.7818 71.5196C39.7396 73.9972 39.7523 76.4748 39.7144 78.9482C39.6988 79.0388 39.7016 79.1315 39.7227 79.221C39.7438 79.3104 39.7826 79.3947 39.837 79.4687C39.8913 79.5428 39.9601 79.6051 40.0391 79.6521C40.118 79.699 40.2057 79.7295 40.2967 79.7418C42.6557 80.4635 45.0061 81.2359 47.3693 81.9535C48.1022 82.1658 48.7352 82.6328 49.1544 83.2704C50.547 85.2626 51.9733 87.2338 53.3744 89.2133C53.5094 89.3991 53.6487 89.5805 53.7964 89.7789C56.0625 89.0192 58.3328 88.3354 60.5483 87.4912C61.8023 86.9805 63.2062 86.9805 64.4602 87.4912C66.6714 88.3354 68.9333 89.0107 71.1826 89.7663C71.3429 89.551 71.4864 89.3695 71.6046 89.1796C73.0309 87.1831 74.4657 85.1951 75.8752 83.186C76.2634 82.6047 76.845 82.18 77.5167 81.9873C79.901 81.2613 82.2684 80.4762 84.6485 79.746C84.745 79.7327 84.8378 79.7001 84.9213 79.65C85.0049 79.5999 85.0774 79.5334 85.1346 79.4546C85.1918 79.3757 85.2324 79.286 85.254 79.191C85.2756 79.096 85.2778 78.9977 85.2603 78.9018C85.2181 76.4284 85.235 73.9507 85.1928 71.4773C85.1657 70.7559 85.3927 70.0478 85.8342 69.4767C87.345 67.4675 88.8178 65.4246 90.3243 63.4113C90.3834 63.3549 90.4304 63.2872 90.4626 63.2121C90.4947 63.137 90.5113 63.0561 90.5113 62.9744C90.5113 62.8927 90.4947 62.8119 90.4626 62.7368C90.4304 62.6617 90.3834 62.594 90.3243 62.5376C88.8262 60.5411 87.3703 58.5151 85.868 56.5229C85.3986 55.9222 85.1578 55.1742 85.1886 54.4125C85.2308 51.9601 85.2139 49.5036 85.2561 47.0471C85.2742 46.9515 85.2726 46.8532 85.2515 46.7582C85.2304 46.6632 85.1902 46.5735 85.1334 46.4946C85.0766 46.4156 85.0042 46.349 84.9209 46.2989C84.8375 46.2488 84.7448 46.2161 84.6485 46.2029C82.3022 45.4896 79.9812 44.7129 77.6349 44.0081C76.8815 43.7914 76.2294 43.3143 75.795 42.6616C74.3054 40.5259 72.7651 38.3859 71.2079 36.2206Z" fill="black"/>
<path d="M58.8392 67.7084C59.0145 67.4563 59.2032 67.214 59.4046 66.9824C63.5289 62.8572 67.6434 58.7376 71.748 54.6237C71.9494 54.3784 72.2015 54.1796 72.4871 54.0411C72.7727 53.9027 73.0849 53.8278 73.4023 53.8218C73.752 53.8237 74.0945 53.9216 74.3925 54.1048C74.6905 54.288 74.9325 54.5494 75.0922 54.8607C75.2519 55.1719 75.3232 55.521 75.2983 55.8699C75.2734 56.2189 75.1533 56.5543 74.951 56.8397C74.8005 57.0438 74.6309 57.2332 74.4446 57.4053L60.5272 71.3172C59.354 72.4906 58.3581 72.4906 57.1934 71.3172C54.9062 69.0295 52.6189 66.7404 50.3317 64.4499C49.2978 63.4031 49.4877 61.8667 50.7537 61.2589C51.1359 61.0664 51.5715 61.0071 51.9912 61.0905C52.411 61.1738 52.7908 61.395 53.0705 61.719C54.826 63.4636 56.5745 65.2124 58.3159 66.9655C58.5059 67.2018 58.6806 67.4499 58.8392 67.7084Z" fill="black"/>
</svg>
