<svg width="125" height="125" viewBox="0 0 125 125" fill="none" xmlns="http://www.w3.org/2000/svg">
<path d="M0 17C0 7.61116 7.61116 0 17 0H108C117.389 0 125 7.61116 125 17V108C125 117.389 117.389 125 108 125H17C7.61116 125 0 117.389 0 108V17Z" fill="#06FFF2"/>
<path d="M68.5645 82.5212C68.5944 82.3709 68.6272 82.2178 68.6517 82.0675C68.8408 81.2594 69.1418 80.4818 69.5461 79.7574C70.9694 76.8214 72.4118 73.8991 73.8514 70.974C74.1093 70.399 74.4966 69.8918 74.983 69.4923C76.3463 68.4507 78.1514 68.7569 79.1602 70.2331C79.4776 70.7166 79.7592 71.2228 80.0028 71.7476C81.2952 74.3693 82.5876 76.9937 83.8555 79.629C84.2239 80.3274 84.5243 81.0598 84.7526 81.816C84.8717 82.3101 84.8888 82.8235 84.8028 83.3245C84.7167 83.8255 84.5294 84.3036 84.2523 84.7294C83.9753 85.1552 83.6143 85.5197 83.1915 85.8005C82.7688 86.0812 82.2933 86.2724 81.7942 86.3622C80.499 86.5945 79.3402 86.1845 78.3259 85.4108C77.8351 85.0418 77.3961 84.5907 76.9407 84.1834C76.8681 84.0996 76.8049 84.0079 76.7526 83.91C76.4172 84.2545 76.1609 84.5388 75.8801 84.7985C75.1161 85.558 74.1603 86.0948 73.1152 86.3512C72.6213 86.4592 72.1107 86.4653 71.6143 86.3692C71.118 86.2731 70.6463 86.0768 70.228 85.7922C69.8097 85.5076 69.4536 85.1406 69.1812 84.7136C68.9088 84.2867 68.7258 83.8086 68.6435 83.3086C68.619 83.1719 68.5972 83.0352 68.5726 82.8985L68.5645 82.5212ZM73.7724 78.5273C73.7282 77.8667 73.8944 77.2091 74.2468 76.6492C74.6118 76.1346 75.1267 75.746 75.7209 75.5365C76.315 75.327 76.9592 75.307 77.5651 75.4791C78.1661 75.6359 78.6991 75.9862 79.0824 76.4761C79.4656 76.966 79.6778 77.5685 79.6865 78.191C79.6678 79.0691 79.4516 79.9317 79.0539 80.7143C78.6511 81.5291 78.1551 82.2942 77.576 82.9942C77.467 83.1281 77.4424 83.232 77.576 83.3468C77.6169 83.3824 77.6497 83.4289 77.6878 83.4671C78.3722 84.1752 79.0948 84.834 80.0328 85.1866C81.5706 85.7717 83.1711 85.0664 83.6619 83.5819C83.7832 83.1925 83.8257 82.7828 83.7868 82.3767C83.748 81.9706 83.6286 81.5764 83.4356 81.2173C81.9959 78.2284 80.5535 75.2422 79.1084 72.2588C78.8546 71.7131 78.5535 71.1908 78.2086 70.6979C77.9419 70.3486 77.5583 70.1076 77.1285 70.0192C76.6987 69.9308 76.2515 70.001 75.8692 70.2167C75.4369 70.4705 75.0939 70.8526 74.8876 71.3102C74.2741 72.4994 73.6469 73.6831 73.0634 74.8859C72.0028 77.0729 70.9639 79.2736 69.9305 81.4742C69.7664 81.8048 69.6698 82.1649 69.6463 82.5334C69.6229 82.9019 69.6732 83.2714 69.7942 83.6202C70.2986 85.0882 71.8964 85.7799 73.4206 85.1894C74.3722 84.8231 75.1057 84.156 75.801 83.437C75.8415 83.4097 75.8753 83.3735 75.8996 83.3311C75.924 83.2886 75.9383 83.2411 75.9414 83.1923C75.9446 83.1434 75.9365 83.0945 75.9179 83.0492C75.8992 83.004 75.8704 82.9636 75.8337 82.9313C75.4121 82.3688 75.0199 81.7849 74.6585 81.1817C74.1531 80.3819 73.849 79.471 73.7724 78.5273ZM76.6953 82.2889C76.7499 82.267 76.769 82.267 76.7771 82.2561C76.8562 82.1577 76.9353 82.062 77.0089 81.9609C77.6828 81.1162 78.1916 80.1516 78.5086 79.1178C78.6077 78.8248 78.6482 78.515 78.6276 78.2063C78.607 77.8976 78.5258 77.5961 78.3886 77.3189C78.1599 76.9267 77.7996 76.6289 77.372 76.4786C76.9444 76.3284 76.4774 76.3355 76.0546 76.4988C75.1221 76.8378 74.7376 77.6525 74.8603 78.5956C75.0457 80.0363 75.8555 81.1681 76.6953 82.2889Z" fill="black"/>
<path d="M63.0211 86.901H36.469C35.2837 86.8996 34.1474 86.4267 33.3096 85.5861C32.4717 84.7456 32.0007 83.6061 32 82.4177V37.4833C32.0007 36.295 32.4717 35.1555 33.3096 34.3149C34.1474 33.4744 35.2837 33.0014 36.469 33H73.0416C74.2269 33.0014 75.3631 33.4744 76.201 34.3149C77.0389 35.1555 77.5098 36.295 77.5106 37.4833V63.9432H65.8541C65.1027 63.9446 64.3826 64.2447 63.8515 64.7776C63.3205 65.3106 63.0219 66.0329 63.0211 66.7862V86.901ZM36.469 34.6402C35.7176 34.6417 34.9974 34.9418 34.4664 35.4747C33.9353 36.0077 33.6367 36.73 33.636 37.4833V82.4177C33.6367 83.1711 33.9353 83.8934 34.4664 84.4263C34.9974 84.9593 35.7176 85.2594 36.469 85.2608H61.3851V66.7862C61.3859 65.5979 61.8568 64.4584 62.6947 63.6178C63.5326 62.7773 64.6688 62.3044 65.8541 62.3029H75.8746V37.4833C75.8739 36.73 75.5752 36.0077 75.0442 35.4747C74.5131 34.9418 73.793 34.6417 73.0416 34.6402H36.469Z" fill="black"/>
<path d="M87.5306 92.9998H65.8538C64.6689 92.9984 63.5331 92.5259 62.6953 91.6859C61.8575 90.8459 61.3862 89.7071 61.3848 88.5192L61.3851 66.7862C61.3859 65.5979 61.8568 64.4584 62.6947 63.6178C63.5326 62.7773 64.6688 62.3044 65.8541 62.3029L87.5306 62.3027C88.7162 62.3042 89.8527 62.777 90.691 63.6175C91.5293 64.458 92.0009 65.5975 92.0023 66.7861V88.5192C92.0009 89.7076 91.5292 90.8468 90.6909 91.6869C89.8525 92.5269 88.7159 92.9991 87.5306 92.9998ZM65.8541 63.9432C65.1027 63.9446 64.3826 64.2447 63.8515 64.7776C63.3205 65.3106 63.0219 66.0329 63.0211 66.7862L63.0208 88.5192C63.0215 89.2723 63.3202 89.9944 63.8513 90.5269C64.3825 91.0594 65.1026 91.3589 65.8538 91.3596H87.5306C88.282 91.3589 89.0025 91.0595 89.534 90.527C90.0656 89.9946 90.3649 89.2726 90.3664 88.5192V66.7861C90.3649 66.0325 90.0657 65.3101 89.5342 64.7773C89.0027 64.2444 88.2823 63.9444 87.5306 63.943L65.8541 63.9432Z" fill="black"/>
<path d="M66.5904 48.0359H42.1051C41.5542 48.0352 41.0262 47.8155 40.6367 47.425C40.2472 47.0345 40.0281 46.5051 40.0273 45.9528V43.3995C40.0273 42.847 40.2462 42.3172 40.6359 41.9265C41.0255 41.5359 41.554 41.3164 42.1051 41.3164H66.5904C67.1414 41.3164 67.6699 41.5359 68.0596 41.9265C68.4492 42.3172 68.6681 42.847 68.6681 43.3995V45.9528C68.6674 46.5051 68.4483 47.0345 68.0588 47.425C67.6693 47.8155 67.1412 48.0352 66.5904 48.0359ZM42.1051 42.8036C41.9479 42.8043 41.7974 42.8674 41.6865 42.9791C41.5756 43.0908 41.5134 43.2419 41.5134 43.3995V45.9528C41.5134 46.1101 41.5757 46.261 41.6867 46.3723C41.7976 46.4835 41.9481 46.546 42.1051 46.546H66.5904C66.7473 46.546 66.8978 46.4835 67.0088 46.3723C67.1197 46.261 67.1821 46.1101 67.1821 45.9528V43.3995C67.1821 43.2419 67.1198 43.0908 67.0089 42.9791C66.8981 42.8674 66.7476 42.8043 66.5904 42.8036H42.1051Z" fill="black"/>
<path d="M67.9265 54.3944H40.7717C40.6741 54.3947 40.5774 54.3758 40.4871 54.3386C40.3968 54.3014 40.3147 54.2466 40.2455 54.1776C40.1764 54.1085 40.1215 54.0264 40.0841 53.936C40.0466 53.8456 40.0273 53.7487 40.0273 53.6508C40.0273 53.5529 40.0466 53.456 40.0841 53.3656C40.1215 53.2752 40.1764 53.1931 40.2455 53.124C40.3147 53.055 40.3968 53.0002 40.4871 52.963C40.5774 52.9258 40.6741 52.9069 40.7717 52.9072H67.9265C68.1232 52.9072 68.3118 52.9856 68.4509 53.125C68.59 53.2645 68.6681 53.4536 68.6681 53.6508C68.6681 53.848 68.59 54.0371 68.4509 54.1766C68.3118 54.316 68.1232 54.3944 67.9265 54.3944Z" fill="black"/>
<path d="M67.9265 59.1315H40.7717C40.6741 59.1319 40.5774 59.1129 40.4871 59.0757C40.3968 59.0385 40.3147 58.9837 40.2455 58.9147C40.1764 58.8456 40.1215 58.7635 40.0841 58.6731C40.0466 58.5827 40.0273 58.4858 40.0273 58.3879C40.0273 58.19 40.1058 58.0002 40.2454 57.8602C40.385 57.7203 40.5743 57.6416 40.7717 57.6416H67.9265C68.1157 57.6531 68.2935 57.7366 68.4235 57.875C68.5534 58.0135 68.6258 58.1965 68.6258 58.3866C68.6258 58.5767 68.5534 58.7596 68.4235 58.8981C68.2935 59.0365 68.1157 59.12 67.9265 59.1315Z" fill="black"/>
<path d="M56.4091 70.2282H40.7717C40.6741 70.2285 40.5774 70.2095 40.4871 70.1723C40.3968 70.1351 40.3147 70.0804 40.2455 70.0113C40.1764 69.9423 40.1215 69.8602 40.0841 69.7698C40.0466 69.6794 40.0273 69.5825 40.0273 69.4846C40.0273 69.2867 40.1058 69.0968 40.2454 68.9569C40.385 68.8169 40.5743 68.7383 40.7717 68.7383H56.4091C56.5984 68.7498 56.7761 68.8333 56.9061 68.9717C57.036 69.1102 57.1084 69.2931 57.1084 69.4832C57.1084 69.6733 57.036 69.8563 56.9061 69.9947C56.7761 70.1332 56.5984 70.2167 56.4091 70.2282Z" fill="black"/>
<path d="M56.4091 74.7662H40.7717C40.5743 74.7662 40.385 74.6876 40.2454 74.5477C40.1058 74.4077 40.0273 74.2179 40.0273 74.0199C40.0273 73.9221 40.0466 73.8251 40.0841 73.7348C40.1215 73.6444 40.1764 73.5623 40.2455 73.4932C40.3147 73.4241 40.3968 73.3694 40.4871 73.3322C40.5774 73.295 40.6741 73.276 40.7717 73.2764H56.4091C56.5984 73.2879 56.7761 73.3714 56.9061 73.5098C57.036 73.6482 57.1084 73.8312 57.1084 74.0213C57.1084 74.2114 57.036 74.3944 56.9061 74.5328C56.7761 74.6713 56.5984 74.7547 56.4091 74.7662Z" fill="black"/>
</svg>
