<svg width="73" height="71" viewBox="0 0 73 71" fill="none" xmlns="http://www.w3.org/2000/svg">
<path d="M0.998047 33.148C1.18327 31.8718 1.29069 30.5826 1.5537 29.3249C4.38385 15.8888 12.2353 6.71651 25.1006 1.93959C31.0276 -0.257167 37.1398 -0.479436 43.3262 0.728224C43.4632 0.754155 43.5966 0.7912 43.7318 0.822688C44.9339 1.10793 45.6154 2.11925 45.3858 3.30284C45.3311 3.56918 45.2239 3.82198 45.0705 4.04648C44.9171 4.27098 44.7205 4.46269 44.4923 4.61044C44.264 4.75819 44.0086 4.85902 43.741 4.90706C43.4734 4.95509 43.1989 4.94936 42.9335 4.8902C40.5562 4.40958 38.1352 4.17865 35.7099 4.20117C21.1147 4.49568 8.21419 15.5406 5.70447 29.9176C4.16159 38.7732 6.1601 46.8175 11.3499 54.1097C11.5763 54.4454 11.8545 54.743 12.1742 54.9914C12.1112 54.5561 12.0519 54.119 11.9889 53.6837C11.7908 52.3464 12.5224 51.2758 13.767 51.0906C14.9284 50.9054 15.9323 51.7666 16.1212 53.0928C16.4712 55.5378 16.8121 57.9828 17.1769 60.4259C17.477 62.4355 16.3472 63.5265 14.3505 63.1375C11.6778 62.6171 9.00137 62.1151 6.32866 61.5909C5.04694 61.3409 4.28198 60.3129 4.49313 59.1719C4.71724 57.9513 5.81189 57.2752 7.15843 57.5216L8.92727 57.8438C8.71612 57.5567 8.57721 57.3641 8.4346 57.1752C4.21078 51.6877 1.66937 45.0927 1.11844 38.1897C1.09011 37.9857 1.0499 37.7834 0.998047 37.5841V33.148Z" fill="black"/>
<path d="M34.8339 71.0005C33.4188 70.8153 32.0019 70.6431 30.5868 70.4449C30.1296 70.3831 29.6763 70.2953 29.2291 70.1818C28.7027 70.0659 28.2419 69.75 27.944 69.3007C27.6461 68.8514 27.5344 68.304 27.6325 67.7739C27.8178 66.7015 28.8291 65.9699 29.9867 66.1069C31.6129 66.3014 33.2299 66.6163 34.8616 66.7145C41.5999 67.1164 47.8474 65.479 53.4817 61.7875C61.4461 56.5716 66.1451 49.1589 67.488 39.7588C68.7086 31.22 66.5415 23.4591 61.4109 16.5299C61.2887 16.3669 61.1516 16.2132 60.8794 15.8835C60.9257 16.3465 60.9701 16.6244 60.9757 16.8929C60.9886 17.4486 61.0794 18.0154 60.9534 18.534C60.7441 19.4046 59.8421 19.9788 58.9549 19.9491C58.4989 19.9472 58.0575 19.7886 57.7044 19.5C57.3514 19.2113 57.1082 18.8101 57.0157 18.3636C56.7397 16.8818 56.5545 15.4 56.3378 13.9183C56.1655 12.731 56.0118 11.54 55.8321 10.3527C55.5802 8.68568 56.7971 7.50951 58.4474 7.8318C61.1887 8.36895 63.9318 8.88943 66.673 9.42102C68.014 9.68033 68.7752 10.7287 68.5252 11.9549C68.2844 13.1162 67.1713 13.7553 65.8469 13.4996C65.3117 13.3959 64.7745 13.3052 64.1614 13.1959C64.8375 14.1498 65.4894 15.0129 66.0821 15.9168C70.2162 22.2255 72.1857 29.1523 71.9906 36.6971C71.5943 52.48 60.1181 66.5181 44.7227 69.9948C42.7946 70.43 40.8035 70.593 38.842 70.8838C38.6568 70.9116 38.4845 70.9561 38.3067 70.9931L34.8339 71.0005Z" fill="black"/>
<path d="M58.1418 35.6135C58.1472 41.3525 55.874 46.8588 51.8216 50.9224C47.7692 54.986 42.2693 57.2744 36.5305 57.2847C24.619 57.294 14.8895 47.566 14.8802 35.6376C14.8709 23.7092 24.5801 13.9812 36.5064 13.9664C39.3485 13.9667 42.1626 14.5268 44.7882 15.6149C47.4137 16.703 49.7992 18.2977 51.8083 20.3079C53.8175 22.3181 55.4109 24.7045 56.4976 27.3307C57.5843 29.9568 58.143 32.7714 58.1418 35.6135ZM36.5194 18.1469C26.9065 18.1469 19.068 25.9763 19.0532 35.608C19.0384 45.2396 26.8861 53.1005 36.486 53.1135C41.1227 53.1179 45.5713 51.2801 48.8531 48.0045C52.1349 44.7289 53.9811 40.2837 53.9855 35.6469C53.9899 31.01 52.1522 26.5613 48.8767 23.2794C45.6012 19.9976 41.1561 18.1513 36.5194 18.1469Z" fill="black"/>
<path d="M34.4282 25.6355C34.4282 25.0798 34.4282 24.5594 34.4282 24.0333C34.4504 22.7683 35.3543 21.8199 36.5212 21.8199C37.6881 21.8199 38.5734 22.746 38.5938 24.0426C38.5938 24.5482 38.5938 25.0539 38.5938 25.5744C39.2143 25.6966 39.7996 25.7855 40.3719 25.9337C41.5387 26.2437 42.5995 26.8647 43.441 27.7304C44.3411 28.6287 44.3912 29.9197 43.5688 30.7644C42.7464 31.609 41.4777 31.6108 40.5849 30.7644C40.2663 30.4464 39.8846 30.1986 39.4645 30.0369C39.0444 29.8752 38.5952 29.8031 38.1456 29.8253C36.9453 29.8568 35.7377 29.8253 34.5412 29.8253C33.3095 29.8345 32.4797 30.5884 32.4779 31.6775C32.476 32.7666 33.3225 33.5298 34.5375 33.5427C35.9229 33.5557 37.3158 33.5298 38.6957 33.552C41.9 33.6057 44.493 35.9784 44.6968 39.0272C44.9227 42.3612 42.7964 45.0285 39.5106 45.5267C39.2384 45.5675 38.955 45.6045 38.6031 45.6545C38.6031 46.2009 38.6142 46.7473 38.6031 47.2937C38.5753 48.5347 37.701 49.4183 36.5194 49.4146C35.3377 49.4108 34.4708 48.5125 34.4393 47.2771C34.4264 46.7492 34.4393 46.2213 34.4393 45.6341C32.9242 45.5693 31.5277 45.2637 30.2941 44.4024C29.7274 44.0079 29.368 43.5059 29.3032 42.8187C29.2534 42.4495 29.3096 42.0736 29.4654 41.7352C29.6212 41.3967 29.8701 41.1095 30.183 40.9072C30.8702 40.4368 31.6407 40.3515 32.339 40.7942C33.2076 41.3499 34.1245 41.4759 35.1172 41.4481C36.2489 41.4184 37.3825 41.4481 38.5142 41.4388C39.757 41.4203 40.5516 40.6757 40.5516 39.5681C40.5516 38.4604 39.7477 37.738 38.5012 37.7158C36.7935 37.688 35.0654 37.8047 33.3836 37.5825C30.2719 37.1713 28.1975 34.4892 28.3234 31.3163C28.4419 28.3694 30.8516 25.9226 33.88 25.667C34.0374 25.6559 34.1948 25.6466 34.4282 25.6355Z" fill="black"/>
</svg>
