<svg width="125" height="125" viewBox="0 0 125 125" fill="none" xmlns="http://www.w3.org/2000/svg">
<path d="M0 17C0 7.61116 7.61116 0 17 0H108C117.389 0 125 7.61116 125 17V108C125 117.389 117.389 125 108 125H17C7.61116 125 0 117.389 0 108V17Z" fill="#06FFF2"/>
<path d="M25 36.625C25.2867 35.1327 25.9022 33.7236 26.8015 32.5006C27.5349 31.537 28.4679 30.7444 29.5362 30.1774C30.6045 29.6104 31.7827 29.2825 32.9895 29.2164C34.3136 29.1306 34.6469 29.4739 34.6469 30.8427V40.9933C34.9441 40.9933 35.1963 41.034 35.4485 41.034C46.1913 41.034 56.9326 41.034 67.6724 41.034C67.8964 41.0417 68.1195 41 68.3257 40.9118C68.5319 40.8236 68.7163 40.6911 68.8659 40.5235C73.2344 36.1296 77.606 31.7401 81.9806 27.3552C83.7821 25.5482 85.5835 25.5482 87.385 27.3552C88.3398 28.3129 89.2991 29.2616 90.2448 30.2283C91.7626 31.7823 91.7671 33.6796 90.2448 35.2336C88.5514 36.9548 86.8401 38.6533 85.1377 40.3654C84.971 40.5326 84.8134 40.7087 84.5387 40.9979C84.9035 41.0204 85.1467 41.043 85.3899 41.043H91.7491C93.7712 41.043 93.8973 41.1695 93.8973 43.2385V64.091L94.0595 64.1858L96.4554 61.7419C96.6221 61.5702 96.7977 61.4031 96.9643 61.2269C97.116 61.0226 97.3306 60.8742 97.5749 60.8048C97.8192 60.7354 98.0795 60.7488 98.3155 60.8429C98.5464 60.9503 98.7366 61.1298 98.8575 61.3545C98.9785 61.5792 99.0237 61.8371 98.9865 62.0897C98.9865 67.33 98.9865 72.5717 98.9865 77.8149V98.2563C98.9865 99.7335 98.7208 100.005 97.2796 100.005H61.5249C61.2374 100.024 60.9486 100.008 60.6646 99.9593C60.4773 99.9107 60.3065 99.8122 60.1705 99.6741C60.0344 99.536 59.9382 99.3635 59.892 99.1749C59.8459 98.9864 59.8514 98.7889 59.9082 98.6033C59.9649 98.4177 60.0707 98.2509 60.2143 98.1208C60.8853 97.3934 61.6059 96.7158 62.304 96.0156L66.4249 91.8777H65.4205C54.8008 91.8777 44.1797 91.8777 33.557 91.8777C30.1432 91.8777 27.5671 90.423 25.9638 87.4009C25.4909 86.4974 25.3107 85.4539 25 84.4691V36.625ZM32.4626 31.4977C32.1879 31.5429 32.0438 31.5519 31.9086 31.588C29.0668 32.2928 27.1708 34.8767 27.1708 38.0751C27.1708 51.2419 27.1708 64.4132 27.1708 77.589V78.2938C28.4045 76.9432 30.0333 76.0196 31.8231 75.6556C32.341 75.5652 32.4851 75.3619 32.4806 74.856C32.4536 72.8503 32.4806 70.8445 32.4806 68.8388C32.4806 68.0347 32.931 67.5558 33.548 67.5558C34.165 67.5558 34.6334 68.0437 34.6379 68.8343C34.6379 71.3234 34.6604 73.8034 34.6379 76.3016C34.6379 77.2051 34.2325 77.571 33.2868 77.6568C32.8549 77.6831 32.4257 77.7435 32.0032 77.8375C28.3372 78.741 25.7251 83.1048 28.1391 86.8723C29.4046 88.86 31.2916 89.6867 33.5885 89.6867H64.5874C65.9114 89.6867 67.3886 90.0391 68.5146 89.5602C69.6405 89.0814 70.4827 87.7533 71.442 86.8272C71.9599 86.3167 72.4553 85.7882 72.9867 85.3003C73.1842 85.1005 73.4512 84.9851 73.7316 84.9783C74.012 84.9716 74.2842 85.074 74.491 85.2641C74.5969 85.3642 74.6813 85.485 74.739 85.619C74.7966 85.753 74.8264 85.8974 74.8264 86.0434C74.8264 86.1894 74.7966 86.3338 74.739 86.4678C74.6813 86.6018 74.5969 86.7226 74.491 86.8227C74.3513 86.9898 74.1892 87.1389 74.0406 87.2744L64.2316 97.1133C64.0514 97.2986 63.8803 97.4883 63.6371 97.7458H96.7707V92.5959C96.1762 92.5959 95.6268 92.5959 95.0773 92.5959C94.2081 92.5959 93.7487 92.1984 93.7532 91.5117C93.7577 90.8251 94.2036 90.4411 95.1043 90.4185C95.6538 90.4185 96.2032 90.4185 96.7797 90.4185V87.1479C96.1357 87.1479 95.5322 87.1795 94.9377 87.1479C94.1676 87.1027 93.7577 86.6962 93.7712 86.0412C93.7847 85.3861 94.2216 85.0112 94.9737 84.9841C95.5727 84.9841 96.1672 84.9841 96.7752 84.9841V81.6954C96.1582 81.6954 95.5862 81.6954 95.0142 81.6954C94.2216 81.6954 93.7532 81.2436 93.7577 80.6021C93.7622 79.9607 94.2081 79.5406 95.0233 79.527C95.6132 79.527 96.2032 79.527 96.7572 79.527V76.2248C96.1447 76.2248 95.5952 76.2248 95.0413 76.2248C94.2126 76.2248 93.7757 75.8408 93.7622 75.1722C93.7487 74.5036 94.2126 74.0745 95.0638 74.0519C95.6312 74.0519 96.1987 74.0519 96.7572 74.0519V64.6195C96.5035 64.7476 96.2818 64.9313 96.1086 65.1571C92.3826 68.9035 88.6535 72.647 84.9215 76.3874C82.5886 78.7274 80.2557 81.0675 77.9228 83.4075C77.3328 83.9993 76.6617 84.0761 76.2069 83.6379C75.752 83.1997 75.7565 82.513 76.3915 81.858C76.5086 81.736 76.6302 81.6186 76.7518 81.5011C81.5678 76.6524 86.3777 71.8188 91.1816 67.0002C91.4713 66.702 91.6495 66.3127 91.686 65.8979C91.713 58.5978 91.686 51.3021 91.7175 44.0065C91.7175 43.4056 91.5599 43.2204 90.9519 43.2295C88.2812 43.2566 85.606 43.2295 82.9354 43.2295C82.7106 43.2232 82.4873 43.2664 82.2811 43.3562C82.0748 43.446 81.8908 43.5801 81.7419 43.749C75.5178 50.0101 69.2081 56.1945 63.0831 62.5505C60.8313 64.8725 58.4488 66.6794 55.2918 67.4158C54.6176 67.6154 53.9558 67.8553 53.3101 68.1341L53.3417 68.256H74.1577C75.0584 68.256 75.5718 68.6807 75.5628 69.3628C75.5538 70.0449 75.0494 70.4289 74.2117 70.4289C64.3577 70.4289 54.5066 70.4289 44.6586 70.4289C43.8434 70.4289 43.3795 70.0314 43.3615 69.3809C43.3435 68.7304 43.8119 68.2696 44.6586 68.256C45.5053 68.2425 46.3925 68.2154 47.2572 68.256C47.371 68.2802 47.4884 68.2809 47.6025 68.2582C47.7166 68.2355 47.8249 68.1898 47.9209 68.124C48.0169 68.0581 48.0985 67.9734 48.1609 67.875C48.2234 67.7765 48.2652 67.6664 48.284 67.5513C49.3244 64.493 50.4098 61.4482 51.4816 58.4035C51.5525 58.1232 51.6797 57.8603 51.8554 57.631C53.5578 55.8873 55.2873 54.1707 57.0122 52.4495C57.0932 52.3682 57.2193 52.2553 57.3094 52.2643C57.7147 52.314 58.2372 52.2643 58.4714 52.5218C58.6811 52.8715 58.7534 53.2871 58.674 53.6873C58.647 53.9268 58.3543 54.1391 58.1516 54.3514C56.8455 55.6705 55.535 56.9805 54.2874 58.2273L59.1604 63.1649L81.5302 40.7358C79.9404 39.1367 78.3056 37.5014 76.5221 35.7125C76.3852 35.9561 76.2253 36.186 76.0447 36.3991C71.424 41.0491 66.7882 45.696 62.1374 50.3399C61.9408 50.5523 61.7235 50.7445 61.4888 50.9136C61.285 51.0451 61.0423 51.102 60.8015 51.0749C60.5607 51.0479 60.3366 50.9384 60.1668 50.765C59.9971 50.5915 59.8921 50.3647 59.8696 50.1227C59.8471 49.8808 59.9083 49.6384 60.0431 49.4364C60.1764 49.2423 60.3272 49.0608 60.4935 48.8943L65.4476 43.9251C65.6277 43.7444 65.7898 43.5502 66.042 43.2792H34.6379V44.1826C34.6379 50.6546 34.6379 57.1296 34.6379 63.6076C34.652 63.9431 34.6202 64.2791 34.5433 64.6059C34.4744 64.8303 34.3323 65.025 34.1399 65.1587C33.9475 65.2924 33.7159 65.3575 33.4822 65.3434C33.2486 65.3294 33.0263 65.237 32.8512 65.0812C32.6762 64.9253 32.5583 64.715 32.5166 64.484C32.4745 64.1727 32.4594 63.8583 32.4716 63.5443C32.4716 53.2054 32.4716 42.8636 32.4716 32.5186L32.4626 31.4977ZM86.813 35.6221C87.4661 34.958 88.1326 34.2985 88.7721 33.6164C89.3171 33.0336 89.3531 32.4373 88.8217 31.8817C87.7408 30.7523 86.6329 29.6501 85.5115 28.5614C85.4164 28.4497 85.2993 28.3589 85.1676 28.2947C85.0359 28.2305 84.8924 28.1943 84.7461 28.1884C84.5998 28.1824 84.4538 28.2069 84.3174 28.2602C84.1809 28.3135 84.057 28.3945 83.9532 28.4981C83.2011 29.1938 82.4985 29.9482 81.8274 30.6258L86.813 35.6221ZM78.2876 34.181L83.1696 39.1186L85.0161 37.3116L80.1161 32.3967C79.5441 32.9568 78.9046 33.5712 78.2876 34.181ZM57.0167 64.4478L53.0805 60.4815C51.7834 63.0791 51.8194 63.3682 53.738 65.1661C53.774 65.1977 53.8011 65.2519 53.8416 65.261C54.0307 65.3062 54.2514 65.41 54.4135 65.3558C55.3053 65.0938 56.1835 64.7686 57.0167 64.4704V64.4478Z" fill="black"/>
<path d="M84.1153 92.2978C82.2598 92.2978 80.4043 92.2978 78.5533 92.2978C77.9858 92.2978 77.4679 92.2119 77.2022 91.6427C76.9365 91.0735 77.2292 90.5857 77.6526 90.161C81.4417 86.3754 85.2233 82.5823 88.9973 78.7816C89.4117 78.366 89.8575 78.0498 90.4655 78.3073C91.0735 78.5648 91.1411 79.125 91.1411 79.7077C91.1411 83.3819 91.1411 87.0546 91.1411 90.7257C91.1411 91.9274 90.7763 92.2887 89.5918 92.2933L84.1153 92.2978ZM88.9298 82.2872C86.3492 84.8711 83.7235 87.5093 81.1699 90.0707H88.9298V82.2872Z" fill="black"/>
</svg>
