<svg width="77" height="37" viewBox="0 0 77 37" fill="none" xmlns="http://www.w3.org/2000/svg">
<path d="M0.998047 16.8712C1.1409 16.1252 1.27006 15.3753 1.43053 14.6333C2.28076 10.6932 4.46518 7.17696 7.60654 4.69188C10.7479 2.2068 14.649 0.908904 18.636 1.02234C20.9439 1.10454 23.1849 1.82742 25.1135 3.11177C27.3356 4.536 29.4598 6.11063 31.4716 7.82487C33.82 9.86484 35.9491 12.1521 38.1683 14.3286C38.2641 14.4669 38.3386 14.619 38.3894 14.7798C39.1722 13.9487 39.8004 13.2621 40.4521 12.6033C43.6693 9.36029 46.9491 6.18657 50.8141 3.71921C53.3229 2.1185 55.9941 0.976832 59.0333 0.998597C66.8767 1.05796 73.7417 6.63967 75.5284 14.4216C76.0606 16.6767 76.1458 19.016 75.779 21.3046C75.4122 23.5931 74.6007 25.7855 73.3913 27.7552C72.1819 29.7249 70.5985 31.4329 68.7327 32.7805C66.8669 34.1281 64.7555 35.0887 62.5205 35.6068C58.2622 36.606 54.4012 35.6187 50.8082 33.2681C46.454 30.4208 42.7515 26.8098 39.182 23.0445C38.9667 22.8189 38.7573 22.5855 38.5029 22.3084C38.2485 22.5815 38.0352 22.813 37.82 23.0405C34.3249 26.7366 30.6986 30.2902 26.4442 33.1098C23.4814 35.0726 20.2896 36.2756 16.6595 35.9491C9.33073 35.3081 3.02936 29.7323 1.44227 22.4311C1.27593 21.6654 1.14482 20.8918 0.998047 20.1221V16.8712ZM35.1253 18.3987C33.2681 16.5308 31.5088 14.6492 29.6321 12.8981C27.0682 10.4612 24.1563 8.42819 20.9941 6.86722C19.3824 6.06467 17.5446 5.85478 15.7965 6.27363C11.1155 7.34802 7.94717 10.1814 6.56752 14.8114C5.15852 19.5403 6.20353 23.8181 9.61644 27.3718C13.3346 31.2519 18.1703 31.8731 22.7867 29.1842C27.5186 26.4339 31.4423 22.7259 35.1253 18.3987ZM41.9237 18.557C43.3483 20.0469 44.681 21.5249 46.0979 22.91C48.9667 25.7157 52.1037 28.1612 55.6869 29.9796C57.4599 30.8759 59.2779 31.1786 61.2153 30.7236C66.3033 29.5364 69.5519 26.3508 70.6556 21.2439C71.775 16.0659 70.2153 11.614 65.9687 8.43231C62.5969 5.90758 58.9139 5.14976 54.9609 7.3777C49.9315 10.217 45.7671 14.0615 41.9237 18.557Z" fill="black"/>
</svg>
