<svg width="375" height="85" viewBox="0 0 375 85" fill="none" xmlns="http://www.w3.org/2000/svg">
<path d="M80.8718 0.577148H1V23.6619H80.8718V0.577148Z" fill="black"/>
<path d="M58.0449 29.4267H12.4039V52.5114H58.0449V29.4267Z" fill="black"/>
<path d="M35.2308 58.2826H1V81.3674H35.2308V58.2826Z" fill="black"/>
<path d="M103.191 81.2133V29.4652H135.347V38.3306H112.837V81.2133H103.191Z" fill="black"/>
<path d="M138.158 81.2133V44.1724H159.931V53.0442H147.804V81.2133H138.158Z" fill="black"/>
<path d="M161.549 63.2898V62.4039C161.549 50.8487 168.854 43.4791 179.674 43.4791C190.342 43.4791 197.284 51.1825 197.284 62.4039V65.6137H170.904C171.119 70.6402 174.997 74.1132 180.112 74.1132C185.227 74.1132 187.346 71.4556 188.59 68.6438L196.117 72.6368C194.073 76.5527 189.771 82.2661 179.82 82.2661C168.93 82.2147 161.549 74.8258 161.549 63.2898ZM187.93 58.6357C187.492 54.418 184.351 51.6127 179.598 51.6127C174.629 51.6127 171.633 54.418 170.973 58.6357H187.93Z" fill="black"/>
<path d="M201.263 63.4376V62.2563C201.263 50.2774 208.879 43.4791 217.636 43.4791C224.211 43.4791 228.672 46.1368 230.208 48.7239V29.4331H239.416V81.2133H230.354V76.7196C228.672 79.5314 224.211 82.1891 217.662 82.1891C208.942 82.2148 201.263 75.4357 201.263 63.4376ZM230.354 62.4746C230.354 55.4131 226.115 51.6127 220.416 51.6127C214.717 51.6127 210.471 55.381 210.471 62.4746V63.2385C210.471 70.3 214.787 74.1004 220.416 74.1004C226.045 74.1004 230.354 70.3 230.354 63.2385V62.4746Z" fill="black"/>
<path d="M131.812 48.236H119.272V57.7819H131.812V48.236Z" fill="black"/>
<path d="M258.581 51.6191C258.581 47.3052 261.291 44.3971 265.359 44.3971C266.893 44.395 268.382 44.9293 269.572 45.9096C270.762 46.8899 271.58 48.256 271.889 49.7767H270.106C269.835 48.7098 269.222 47.7637 268.363 47.0865C267.504 46.4093 266.448 46.0392 265.359 46.0341C262.382 46.0341 260.402 48.2809 260.402 51.6191C260.402 54.9573 262.382 57.2041 265.359 57.2041C266.506 57.2013 267.617 56.793 268.499 56.0499C269.381 55.3068 269.978 54.2755 270.188 53.1341H271.946C271.698 54.7219 270.899 56.1681 269.691 57.213C268.484 58.2579 266.948 58.833 265.359 58.8347C261.272 58.8347 258.581 55.9331 258.581 51.6191Z" fill="black"/>
<path d="M273.406 53.5193C273.406 50.3095 275.443 48.2039 278.482 48.2039C281.522 48.2039 283.559 50.3288 283.559 53.5193C283.559 56.7098 281.516 58.8347 278.482 58.8347C275.449 58.8347 273.406 56.7098 273.406 53.5193ZM281.935 53.5193C281.935 51.189 280.539 49.6675 278.476 49.6675C276.414 49.6675 275.017 51.2211 275.017 53.5193C275.017 55.8175 276.414 57.4031 278.476 57.4031C280.539 57.4031 281.935 55.8496 281.935 53.5193Z" fill="black"/>
<path d="M285.292 48.4093H286.91V49.6932C287.301 49.2268 287.787 48.8507 288.335 48.5904C288.882 48.3302 289.478 48.1918 290.083 48.1847C292.622 48.1847 294.291 49.8217 294.291 52.2739V58.6165H292.672V52.5563C292.697 52.1665 292.64 51.7758 292.505 51.4099C292.369 51.044 292.159 50.7112 291.887 50.4335C291.616 50.1557 291.289 49.9393 290.929 49.7984C290.569 49.6576 290.183 49.5955 289.798 49.6162C289.412 49.5954 289.027 49.6574 288.667 49.7983C288.307 49.9392 287.981 50.1558 287.71 50.4337C287.439 50.7116 287.229 51.0445 287.094 51.4104C286.96 51.7763 286.903 52.1668 286.929 52.5563V58.6165H285.311L285.292 48.4093Z" fill="black"/>
<path d="M296.004 55.1563H297.521C297.565 56.5044 298.714 57.4032 300.414 57.4032C302.115 57.4032 303.162 56.7612 303.162 55.7662C303.162 54.9509 302.439 54.4823 300.313 54.0136C297.603 53.3717 296.651 52.6591 296.651 51.1441C296.651 49.3916 298.168 48.2039 300.414 48.2039C301.253 48.1703 302.081 48.3988 302.786 48.8582C303.491 49.3177 304.039 49.9859 304.355 50.7717L302.883 51.1441C302.681 50.6602 302.334 50.2522 301.892 49.9771C301.449 49.7021 300.933 49.5737 300.414 49.6098C299.145 49.6098 298.27 50.1619 298.27 50.9965C298.27 51.6962 298.904 52.0814 300.656 52.5115C303.708 53.1534 304.762 53.9622 304.762 55.6634C304.762 57.5444 303.023 58.809 300.414 58.809C297.806 58.809 296.048 57.3647 296.004 55.1563Z" fill="black"/>
<path d="M307.313 56.0165V49.8409H305.694V48.4093H307.313V44.6218H308.925V48.4286H311.882V49.8602H308.925V56.0358C308.911 56.2128 308.933 56.3909 308.99 56.5587C309.048 56.7265 309.139 56.8805 309.258 57.0108C309.378 57.1411 309.522 57.245 309.683 57.3159C309.844 57.3867 310.018 57.4229 310.194 57.4223H311.952V58.6549C311.408 58.7805 310.853 58.8472 310.295 58.854C308.525 58.8347 307.313 57.7113 307.313 56.0165Z" fill="black"/>
<path d="M313.798 48.4093H315.417V49.8152C315.755 49.3508 316.189 48.9663 316.689 48.6881C317.188 48.4099 317.742 48.2446 318.31 48.2038C318.598 48.1992 318.883 48.27 319.135 48.4093V49.6355H318.45C318.048 49.6076 317.645 49.6663 317.268 49.8078C316.89 49.9493 316.547 50.1703 316.26 50.4561C315.973 50.742 315.75 51.0861 315.604 51.4659C315.459 51.8457 315.395 52.2524 315.417 52.6591V58.6356H313.798V48.4093Z" fill="black"/>
<path d="M329.327 58.6357H327.709V57.3517C327.318 57.8182 326.832 58.1943 326.284 58.4546C325.737 58.7148 325.141 58.8533 324.536 58.8604C321.998 58.8604 320.329 57.2298 320.329 54.7711V48.435H321.947V54.4886C321.922 54.8785 321.979 55.2692 322.114 55.6351C322.25 56.001 322.46 56.3338 322.732 56.6115C323.003 56.8893 323.33 57.1057 323.69 57.2466C324.05 57.3874 324.436 57.4495 324.822 57.4288C325.207 57.4496 325.592 57.3876 325.952 57.2467C326.312 57.1057 326.638 56.8892 326.909 56.6114C327.181 56.3335 327.39 56.0006 327.525 55.6347C327.659 55.2688 327.716 54.8782 327.69 54.4886V48.435H329.308L329.327 58.6357Z" fill="black"/>
<path d="M331.269 53.5193C331.269 50.3095 333.313 48.2039 336.346 48.2039C337.543 48.1668 338.71 48.5812 339.622 49.3667C340.533 50.1522 341.123 51.2525 341.277 52.4536H339.741C339.609 51.6473 339.192 50.917 338.568 50.3985C337.943 49.8801 337.153 49.609 336.346 49.6355C334.284 49.6355 332.887 51.1891 332.887 53.4873C332.887 55.7855 334.284 57.371 336.346 57.371C337.169 57.3878 337.97 57.1004 338.598 56.5627C339.227 56.025 339.64 55.2739 339.76 54.4502H341.296C341.154 55.6686 340.568 56.7898 339.653 57.5946C338.738 58.3995 337.558 58.8302 336.346 58.8026C333.313 58.8347 331.269 56.7098 331.269 53.5193Z" fill="black"/>
<path d="M343.441 56.0165V49.8409H341.823V48.4093H343.441V44.6218H345.04V48.4286H347.991V49.8602H345.04V56.0358C345.026 56.2128 345.049 56.3909 345.106 56.5587C345.163 56.7265 345.255 56.8805 345.374 57.0108C345.493 57.1411 345.638 57.245 345.799 57.3159C345.96 57.3867 346.134 57.4229 346.309 57.4223H348.067V58.6549C347.521 58.7801 346.964 58.8469 346.405 58.854C344.653 58.8347 343.441 57.7113 343.441 56.0165Z" fill="black"/>
<path d="M350.333 44.6218H351.951V46.8686H350.333V44.6218ZM350.333 48.4286H351.951V58.6549H350.333V48.4286Z" fill="black"/>
<path d="M353.925 53.5193C353.925 50.3095 355.968 48.2039 359.001 48.2039C362.035 48.2039 364.078 50.3288 364.078 53.5193C364.078 56.7098 362.035 58.8347 359.001 58.8347C355.968 58.8347 353.925 56.7098 353.925 53.5193ZM362.454 53.5193C362.454 51.189 361.064 49.6675 359.001 49.6675C356.939 49.6675 355.543 51.2211 355.543 53.5193C355.543 55.8175 356.939 57.4031 359.001 57.4031C361.064 57.4031 362.422 55.8496 362.422 53.5193H362.454Z" fill="black"/>
<path d="M365.779 48.4093H367.397V49.6932C367.789 49.2274 368.275 48.8517 368.823 48.5915C369.37 48.3313 369.966 48.1926 370.57 48.1847C373.109 48.1847 374.778 49.8217 374.778 52.2739V58.6165H373.16V52.5563C373.184 52.1671 373.127 51.7769 372.992 51.4115C372.857 51.046 372.648 50.7136 372.377 50.436C372.106 50.1583 371.78 49.9417 371.421 49.8004C371.061 49.6592 370.676 49.5964 370.291 49.6162C369.906 49.5955 369.52 49.6576 369.16 49.7984C368.8 49.9393 368.473 50.1557 368.201 50.4335C367.93 50.7112 367.719 51.044 367.584 51.4099C367.449 51.7758 367.392 52.1665 367.416 52.5563V58.6165H365.798L365.779 48.4093Z" fill="black"/>
<path d="M259.07 70.3835H260.688V71.5262C260.986 71.1148 261.375 70.7789 261.823 70.545C262.271 70.3111 262.767 70.1855 263.271 70.1781C263.835 70.1997 264.387 70.3508 264.885 70.6199C265.383 70.889 265.814 71.2692 266.146 71.7316C266.504 71.2543 266.965 70.8663 267.494 70.597C268.023 70.3278 268.606 70.1845 269.198 70.1781C271.419 70.1781 272.898 71.5262 272.898 73.5484V80.6099H271.28V73.7152C271.285 73.4232 271.23 73.1333 271.117 72.8645C271.005 72.5956 270.837 72.3539 270.626 72.1551C270.414 71.9564 270.163 71.805 269.89 71.711C269.617 71.617 269.327 71.5825 269.039 71.6096C268.752 71.5815 268.461 71.6153 268.187 71.7089C267.913 71.8024 267.661 71.9537 267.449 72.1525C267.237 72.3514 267.069 72.5935 266.956 72.8628C266.843 73.1322 266.787 73.4226 266.793 73.7152V80.6099H265.175V73.7152C265.181 73.4226 265.125 73.1322 265.012 72.8628C264.899 72.5935 264.731 72.3514 264.518 72.1525C264.306 71.9537 264.055 71.8024 263.781 71.7089C263.507 71.6153 263.216 71.5815 262.928 71.6096C262.641 71.5825 262.351 71.617 262.078 71.711C261.804 71.805 261.554 71.9564 261.342 72.1551C261.131 72.3539 260.963 72.5956 260.85 72.8645C260.738 73.1333 260.682 73.4232 260.688 73.7152V80.6099H259.07V70.3835Z" fill="black"/>
<path d="M274.84 75.4934C274.84 72.2837 276.82 70.1781 279.771 70.1781C280.476 70.1979 281.168 70.3819 281.792 70.7159C282.416 71.0499 282.956 71.5249 283.369 72.104V70.3899H284.987V80.6162H283.369V78.8958C282.956 79.4756 282.417 79.9511 281.793 80.2852C281.169 80.6193 280.477 80.8029 279.771 80.8217C276.82 80.8153 274.84 78.684 274.84 75.4934ZM283.369 75.4934C283.369 73.1631 281.998 71.6417 279.936 71.6417C277.873 71.6417 276.458 73.1952 276.458 75.4934C276.458 77.7916 277.854 79.3837 279.936 79.3837C282.017 79.3837 283.369 77.8237 283.369 75.4934Z" fill="black"/>
<path d="M286.726 75.4934C286.726 72.2837 288.75 70.1781 291.739 70.1781C292.459 70.187 293.166 70.3657 293.805 70.7001C294.444 71.0344 294.997 71.5152 295.42 72.104V66.5574H297.038V80.5906H295.42V78.8509C294.997 79.4396 294.444 79.9203 293.805 80.2547C293.166 80.589 292.459 80.7678 291.739 80.7767C288.75 80.8152 286.726 78.684 286.726 75.4934ZM295.42 75.4934C295.42 73.1631 294.005 71.6417 291.904 71.6417C289.804 71.6417 288.344 73.1952 288.344 75.4934C288.344 77.7916 289.778 79.3837 291.904 79.3837C294.03 79.3837 295.42 77.8237 295.42 75.4934Z" fill="black"/>
<path d="M298.98 75.4934C298.98 72.2837 301.024 70.1781 304.057 70.1781C307.091 70.1781 309.134 72.3864 309.134 75.6604L308.975 75.8208H300.618C300.7 77.9521 302.071 79.3837 304.057 79.3837C304.761 79.3993 305.453 79.1898 306.032 78.7853C306.612 78.3808 307.051 77.8018 307.287 77.1305H308.906C308.604 78.1949 307.968 79.1308 307.093 79.7959C306.218 80.461 305.152 80.8189 304.057 80.8153C301.024 80.8153 298.98 78.684 298.98 75.4934ZM307.408 74.3893C307.255 73.6047 306.837 72.8984 306.226 72.3913C305.614 71.8842 304.848 71.6079 304.057 71.6096C303.266 71.6076 302.498 71.8838 301.886 72.3908C301.274 72.8978 300.855 73.6042 300.7 74.3893H307.408Z" fill="black"/>
<path d="M314.579 77.1305H316.096C316.14 78.4786 317.289 79.3838 318.99 79.3838C320.69 79.3838 321.737 78.7418 321.737 77.7467C321.737 76.925 321.014 76.4628 318.888 75.9878C316.178 75.3458 315.226 74.6333 315.226 73.1247C315.226 71.3657 316.743 70.1781 318.99 70.1781C319.828 70.1445 320.656 70.373 321.361 70.8325C322.066 71.2919 322.614 71.9601 322.93 72.746L321.458 73.1183C321.258 72.6398 320.916 72.2355 320.48 71.9609C320.044 71.6863 319.534 71.5547 319.021 71.584C317.752 71.584 316.876 72.1361 316.876 72.9706C316.876 73.6704 317.511 74.0555 319.262 74.4856C322.315 75.1276 323.368 75.9365 323.368 77.6377C323.368 79.5186 321.629 80.7896 319.021 80.7896C316.413 80.7896 314.63 79.3388 314.579 77.1305Z" fill="black"/>
<path d="M324.879 66.5767H326.497V68.8299H324.879V66.5767ZM324.879 70.3835H326.497V80.6099H324.879V70.3835Z" fill="black"/>
<path d="M328.921 70.3835H330.539V71.5262C330.839 71.1147 331.228 70.7788 331.678 70.5449C332.127 70.311 332.623 70.1855 333.129 70.1781C333.692 70.1997 334.243 70.3508 334.74 70.62C335.237 70.8892 335.667 71.2693 335.997 71.7316C336.356 71.2542 336.819 70.8661 337.349 70.5969C337.879 70.3276 338.463 70.1845 339.056 70.1781C341.277 70.1781 342.756 71.5262 342.756 73.5484V80.6099H341.137V73.7152C341.142 73.4229 341.086 73.133 340.973 72.8641C340.859 72.5952 340.691 72.3536 340.479 72.1549C340.267 71.9562 340.016 71.805 339.742 71.7111C339.469 71.6171 339.178 71.5825 338.891 71.6096C338.603 71.5825 338.313 71.6171 338.039 71.7111C337.766 71.805 337.515 71.9562 337.303 72.1549C337.091 72.3536 336.922 72.5952 336.809 72.8641C336.696 73.133 336.639 73.4229 336.644 73.7152V80.6099H335.026V73.7152C335.032 73.4232 334.976 73.1333 334.864 72.8645C334.751 72.5956 334.583 72.3539 334.372 72.1551C334.16 71.9564 333.91 71.805 333.636 71.711C333.363 71.617 333.073 71.5825 332.786 71.6096C332.498 71.5825 332.208 71.6171 331.934 71.7111C331.661 71.805 331.41 71.9562 331.198 72.1549C330.986 72.3536 330.818 72.5952 330.704 72.8641C330.591 73.133 330.534 73.4229 330.539 73.7152V80.6099H328.921V70.3835Z" fill="black"/>
<path d="M345.18 70.3835H346.798V72.1232C347.223 71.5318 347.779 71.0495 348.421 70.715C349.064 70.3806 349.775 70.2032 350.498 70.1973C353.487 70.1973 355.492 72.3222 355.492 75.5127C355.492 78.7032 353.487 80.8346 350.498 80.8346C349.775 80.8286 349.064 80.6513 348.421 80.3168C347.779 79.9823 347.223 79.5 346.798 78.9087V84.4231H345.18V70.3835ZM353.874 75.5191C353.874 73.1888 352.459 71.6674 350.333 71.6674C348.207 71.6674 346.798 73.2209 346.798 75.5191C346.798 77.8173 348.213 79.4094 350.333 79.4094C352.452 79.4094 353.874 77.8237 353.874 75.4934V75.5191Z" fill="black"/>
<path d="M357.231 66.5767H358.843V80.6099H357.231V66.5767Z" fill="black"/>
<path d="M360.785 75.4934C360.785 72.2837 362.828 70.1781 365.862 70.1781C368.895 70.1781 370.938 72.3864 370.938 75.6604L370.773 75.8208H362.422C362.505 77.9521 363.882 79.3837 365.862 79.3837C366.567 79.4006 367.259 79.1919 367.841 78.7873C368.422 78.3827 368.862 77.8029 369.098 77.1305H370.716C370.415 78.196 369.777 79.1326 368.901 79.7978C368.025 80.463 366.957 80.8203 365.862 80.8153C362.809 80.8153 360.785 78.684 360.785 75.4934ZM369.219 74.3893C369.064 73.6042 368.645 72.8978 368.033 72.3908C367.42 71.8838 366.653 71.6076 365.862 71.6096C365.07 71.6076 364.303 71.8838 363.691 72.3908C363.078 72.8978 362.659 73.6042 362.505 74.3893H369.219Z" fill="black"/>
<path d="M80.8718 0.577148H1V23.6619H80.8718V0.577148Z" stroke="black" stroke-width="0.25" stroke-miterlimit="10"/>
<path d="M58.0449 29.4267H12.4039V52.5114H58.0449V29.4267Z" stroke="black" stroke-width="0.25" stroke-miterlimit="10"/>
<path d="M35.2308 58.2826H1V81.3674H35.2308V58.2826Z" stroke="black" stroke-width="0.25" stroke-miterlimit="10"/>
<path d="M103.191 81.2133V29.4652H135.347V38.3306H112.837V81.2133H103.191Z" stroke="black" stroke-width="0.25" stroke-miterlimit="10"/>
<path d="M138.158 81.2133V44.1724H159.931V53.0442H147.804V81.2133H138.158Z" stroke="black" stroke-width="0.25" stroke-miterlimit="10"/>
<path d="M161.549 63.2898V62.4039C161.549 50.8487 168.854 43.4791 179.674 43.4791C190.342 43.4791 197.284 51.1825 197.284 62.4039V65.6137H170.904C171.119 70.6402 174.997 74.1132 180.112 74.1132C185.227 74.1132 187.346 71.4556 188.59 68.6438L196.117 72.6368C194.073 76.5527 189.771 82.2661 179.82 82.2661C168.93 82.2147 161.549 74.8258 161.549 63.2898ZM187.93 58.6357C187.492 54.418 184.351 51.6127 179.598 51.6127C174.629 51.6127 171.633 54.418 170.973 58.6357H187.93Z" stroke="black" stroke-width="0.25" stroke-miterlimit="10"/>
<path d="M201.263 63.4376V62.2563C201.263 50.2774 208.879 43.4791 217.636 43.4791C224.211 43.4791 228.672 46.1368 230.208 48.7239V29.4331H239.416V81.2133H230.354V76.7196C228.672 79.5314 224.211 82.1891 217.662 82.1891C208.942 82.2148 201.263 75.4357 201.263 63.4376ZM230.354 62.4746C230.354 55.4131 226.115 51.6127 220.416 51.6127C214.717 51.6127 210.471 55.381 210.471 62.4746V63.2385C210.471 70.3 214.787 74.1004 220.416 74.1004C226.045 74.1004 230.354 70.3 230.354 63.2385V62.4746Z" stroke="black" stroke-width="0.25" stroke-miterlimit="10"/>
<path d="M131.812 48.236H119.272V57.7819H131.812V48.236Z" stroke="black" stroke-width="0.25" stroke-miterlimit="10"/>
<path d="M258.581 51.6191C258.581 47.3052 261.291 44.3971 265.359 44.3971C266.893 44.395 268.382 44.9293 269.572 45.9096C270.762 46.8899 271.58 48.256 271.889 49.7767H270.106C269.835 48.7098 269.222 47.7637 268.363 47.0865C267.504 46.4093 266.448 46.0392 265.359 46.0341C262.382 46.0341 260.402 48.2809 260.402 51.6191C260.402 54.9573 262.382 57.2041 265.359 57.2041C266.506 57.2013 267.617 56.793 268.499 56.0499C269.381 55.3068 269.978 54.2755 270.188 53.1341H271.946C271.698 54.7219 270.899 56.1681 269.691 57.213C268.484 58.2579 266.948 58.833 265.359 58.8347C261.272 58.8347 258.581 55.9331 258.581 51.6191Z" stroke="black" stroke-width="0.25" stroke-miterlimit="10"/>
<path d="M273.406 53.5193C273.406 50.3095 275.443 48.2039 278.482 48.2039C281.522 48.2039 283.559 50.3288 283.559 53.5193C283.559 56.7098 281.516 58.8347 278.482 58.8347C275.449 58.8347 273.406 56.7098 273.406 53.5193ZM281.935 53.5193C281.935 51.189 280.539 49.6675 278.476 49.6675C276.414 49.6675 275.017 51.2211 275.017 53.5193C275.017 55.8175 276.414 57.4031 278.476 57.4031C280.539 57.4031 281.935 55.8496 281.935 53.5193Z" stroke="black" stroke-width="0.25" stroke-miterlimit="10"/>
<path d="M285.292 48.4093H286.91V49.6932C287.301 49.2268 287.787 48.8507 288.335 48.5904C288.882 48.3302 289.478 48.1918 290.083 48.1847C292.622 48.1847 294.291 49.8217 294.291 52.2739V58.6165H292.672V52.5563C292.697 52.1665 292.64 51.7758 292.505 51.4099C292.369 51.044 292.159 50.7112 291.887 50.4335C291.616 50.1557 291.289 49.9393 290.929 49.7984C290.569 49.6576 290.183 49.5955 289.798 49.6162C289.412 49.5954 289.027 49.6574 288.667 49.7983C288.307 49.9392 287.981 50.1558 287.71 50.4337C287.439 50.7116 287.229 51.0445 287.094 51.4104C286.96 51.7763 286.903 52.1668 286.929 52.5563V58.6165H285.311L285.292 48.4093Z" stroke="black" stroke-width="0.25" stroke-miterlimit="10"/>
<path d="M296.004 55.1563H297.521C297.565 56.5044 298.714 57.4032 300.414 57.4032C302.115 57.4032 303.162 56.7612 303.162 55.7662C303.162 54.9509 302.439 54.4823 300.313 54.0136C297.603 53.3717 296.651 52.6591 296.651 51.1441C296.651 49.3916 298.168 48.2039 300.414 48.2039C301.253 48.1703 302.081 48.3988 302.786 48.8582C303.491 49.3177 304.039 49.9859 304.355 50.7717L302.883 51.1441C302.681 50.6602 302.334 50.2522 301.892 49.9771C301.449 49.7021 300.933 49.5737 300.414 49.6098C299.145 49.6098 298.27 50.1619 298.27 50.9965C298.27 51.6962 298.904 52.0814 300.656 52.5115C303.708 53.1534 304.762 53.9622 304.762 55.6634C304.762 57.5444 303.023 58.809 300.414 58.809C297.806 58.809 296.048 57.3647 296.004 55.1563Z" stroke="black" stroke-width="0.25" stroke-miterlimit="10"/>
<path d="M307.313 56.0165V49.8409H305.694V48.4093H307.313V44.6218H308.925V48.4286H311.882V49.8602H308.925V56.0358C308.911 56.2128 308.933 56.3909 308.99 56.5587C309.048 56.7265 309.139 56.8805 309.258 57.0108C309.378 57.1411 309.522 57.245 309.683 57.3159C309.844 57.3867 310.018 57.4229 310.194 57.4223H311.952V58.6549C311.408 58.7805 310.853 58.8472 310.295 58.854C308.525 58.8347 307.313 57.7113 307.313 56.0165Z" stroke="black" stroke-width="0.25" stroke-miterlimit="10"/>
<path d="M313.798 48.4093H315.417V49.8152C315.755 49.3508 316.189 48.9663 316.689 48.6881C317.188 48.4099 317.742 48.2446 318.31 48.2038C318.598 48.1992 318.883 48.27 319.135 48.4093V49.6355H318.45C318.048 49.6076 317.645 49.6663 317.268 49.8078C316.89 49.9493 316.547 50.1703 316.26 50.4561C315.973 50.742 315.75 51.0861 315.604 51.4659C315.459 51.8457 315.395 52.2524 315.417 52.6591V58.6356H313.798V48.4093Z" stroke="black" stroke-width="0.25" stroke-miterlimit="10"/>
<path d="M329.327 58.6357H327.709V57.3517C327.318 57.8182 326.832 58.1943 326.284 58.4546C325.737 58.7148 325.141 58.8533 324.536 58.8604C321.998 58.8604 320.329 57.2298 320.329 54.7711V48.435H321.947V54.4886C321.922 54.8785 321.979 55.2692 322.114 55.6351C322.25 56.001 322.46 56.3338 322.732 56.6115C323.003 56.8893 323.33 57.1057 323.69 57.2466C324.05 57.3874 324.436 57.4495 324.822 57.4288C325.207 57.4496 325.592 57.3876 325.952 57.2467C326.312 57.1057 326.638 56.8892 326.909 56.6114C327.181 56.3335 327.39 56.0006 327.525 55.6347C327.659 55.2688 327.716 54.8782 327.69 54.4886V48.435H329.308L329.327 58.6357Z" stroke="black" stroke-width="0.25" stroke-miterlimit="10"/>
<path d="M331.269 53.5193C331.269 50.3095 333.313 48.2039 336.346 48.2039C337.543 48.1668 338.71 48.5812 339.622 49.3667C340.533 50.1522 341.123 51.2525 341.277 52.4536H339.741C339.609 51.6473 339.192 50.917 338.568 50.3985C337.943 49.8801 337.153 49.609 336.346 49.6355C334.284 49.6355 332.887 51.1891 332.887 53.4873C332.887 55.7855 334.284 57.371 336.346 57.371C337.169 57.3878 337.97 57.1004 338.598 56.5627C339.227 56.025 339.64 55.2739 339.76 54.4502H341.296C341.154 55.6686 340.568 56.7898 339.653 57.5946C338.738 58.3995 337.558 58.8302 336.346 58.8026C333.313 58.8347 331.269 56.7098 331.269 53.5193Z" stroke="black" stroke-width="0.25" stroke-miterlimit="10"/>
<path d="M343.441 56.0165V49.8409H341.823V48.4093H343.441V44.6218H345.04V48.4286H347.991V49.8602H345.04V56.0358C345.026 56.2128 345.049 56.3909 345.106 56.5587C345.163 56.7265 345.255 56.8805 345.374 57.0108C345.493 57.1411 345.638 57.245 345.799 57.3159C345.96 57.3867 346.134 57.4229 346.309 57.4223H348.067V58.6549C347.521 58.7801 346.964 58.8469 346.405 58.854C344.653 58.8347 343.441 57.7113 343.441 56.0165Z" stroke="black" stroke-width="0.25" stroke-miterlimit="10"/>
<path d="M350.333 44.6218H351.951V46.8686H350.333V44.6218ZM350.333 48.4286H351.951V58.6549H350.333V48.4286Z" stroke="black" stroke-width="0.25" stroke-miterlimit="10"/>
<path d="M353.925 53.5193C353.925 50.3095 355.968 48.2039 359.001 48.2039C362.035 48.2039 364.078 50.3288 364.078 53.5193C364.078 56.7098 362.035 58.8347 359.001 58.8347C355.968 58.8347 353.925 56.7098 353.925 53.5193ZM362.454 53.5193C362.454 51.189 361.064 49.6675 359.001 49.6675C356.939 49.6675 355.543 51.2211 355.543 53.5193C355.543 55.8175 356.939 57.4031 359.001 57.4031C361.064 57.4031 362.422 55.8496 362.422 53.5193H362.454Z" stroke="black" stroke-width="0.25" stroke-miterlimit="10"/>
<path d="M365.779 48.4093H367.397V49.6932C367.789 49.2274 368.275 48.8517 368.823 48.5915C369.37 48.3313 369.966 48.1926 370.57 48.1847C373.109 48.1847 374.778 49.8217 374.778 52.2739V58.6165H373.16V52.5563C373.184 52.1671 373.127 51.7769 372.992 51.4115C372.857 51.046 372.648 50.7136 372.377 50.436C372.106 50.1583 371.78 49.9417 371.421 49.8004C371.061 49.6592 370.676 49.5964 370.291 49.6162C369.906 49.5955 369.52 49.6576 369.16 49.7984C368.8 49.9393 368.473 50.1557 368.201 50.4335C367.93 50.7112 367.719 51.044 367.584 51.4099C367.449 51.7758 367.392 52.1665 367.416 52.5563V58.6165H365.798L365.779 48.4093Z" stroke="black" stroke-width="0.25" stroke-miterlimit="10"/>
<path d="M259.07 70.3835H260.688V71.5262C260.986 71.1148 261.375 70.7789 261.823 70.545C262.271 70.3111 262.767 70.1855 263.271 70.1781C263.835 70.1997 264.387 70.3508 264.885 70.6199C265.383 70.889 265.814 71.2692 266.146 71.7316C266.504 71.2543 266.965 70.8663 267.494 70.597C268.023 70.3278 268.606 70.1845 269.198 70.1781C271.419 70.1781 272.898 71.5262 272.898 73.5484V80.6099H271.28V73.7152C271.285 73.4232 271.23 73.1333 271.117 72.8645C271.005 72.5956 270.837 72.3539 270.626 72.1551C270.414 71.9564 270.163 71.805 269.89 71.711C269.617 71.617 269.327 71.5825 269.039 71.6096C268.752 71.5815 268.461 71.6153 268.187 71.7089C267.913 71.8024 267.661 71.9537 267.449 72.1525C267.237 72.3514 267.069 72.5935 266.956 72.8628C266.843 73.1322 266.787 73.4226 266.793 73.7152V80.6099H265.175V73.7152C265.181 73.4226 265.125 73.1322 265.012 72.8628C264.899 72.5935 264.731 72.3514 264.518 72.1525C264.306 71.9537 264.055 71.8024 263.781 71.7089C263.507 71.6153 263.216 71.5815 262.928 71.6096C262.641 71.5825 262.351 71.617 262.078 71.711C261.804 71.805 261.554 71.9564 261.342 72.1551C261.131 72.3539 260.963 72.5956 260.85 72.8645C260.738 73.1333 260.682 73.4232 260.688 73.7152V80.6099H259.07V70.3835Z" stroke="black" stroke-width="0.25" stroke-miterlimit="10"/>
<path d="M274.84 75.4934C274.84 72.2837 276.82 70.1781 279.771 70.1781C280.476 70.1979 281.168 70.3819 281.792 70.7159C282.416 71.0499 282.956 71.5249 283.369 72.104V70.3899H284.987V80.6162H283.369V78.8958C282.956 79.4756 282.417 79.9511 281.793 80.2852C281.169 80.6193 280.477 80.8029 279.771 80.8217C276.82 80.8153 274.84 78.684 274.84 75.4934ZM283.369 75.4934C283.369 73.1631 281.998 71.6417 279.936 71.6417C277.873 71.6417 276.458 73.1952 276.458 75.4934C276.458 77.7916 277.854 79.3837 279.936 79.3837C282.017 79.3837 283.369 77.8237 283.369 75.4934Z" stroke="black" stroke-width="0.25" stroke-miterlimit="10"/>
<path d="M286.726 75.4934C286.726 72.2837 288.75 70.1781 291.739 70.1781C292.459 70.187 293.166 70.3657 293.805 70.7001C294.444 71.0344 294.997 71.5152 295.42 72.104V66.5574H297.038V80.5906H295.42V78.8509C294.997 79.4396 294.444 79.9203 293.805 80.2547C293.166 80.589 292.459 80.7678 291.739 80.7767C288.75 80.8152 286.726 78.684 286.726 75.4934ZM295.42 75.4934C295.42 73.1631 294.005 71.6417 291.904 71.6417C289.804 71.6417 288.344 73.1952 288.344 75.4934C288.344 77.7916 289.778 79.3837 291.904 79.3837C294.03 79.3837 295.42 77.8237 295.42 75.4934Z" stroke="black" stroke-width="0.25" stroke-miterlimit="10"/>
<path d="M298.98 75.4934C298.98 72.2837 301.024 70.1781 304.057 70.1781C307.091 70.1781 309.134 72.3864 309.134 75.6604L308.975 75.8208H300.618C300.7 77.9521 302.071 79.3837 304.057 79.3837C304.761 79.3993 305.453 79.1898 306.032 78.7853C306.612 78.3808 307.051 77.8018 307.287 77.1305H308.906C308.604 78.1949 307.968 79.1308 307.093 79.7959C306.218 80.461 305.152 80.8189 304.057 80.8153C301.024 80.8153 298.98 78.684 298.98 75.4934ZM307.408 74.3893C307.255 73.6047 306.837 72.8984 306.226 72.3913C305.614 71.8842 304.848 71.6079 304.057 71.6096C303.266 71.6076 302.498 71.8838 301.886 72.3908C301.274 72.8978 300.855 73.6042 300.7 74.3893H307.408Z" stroke="black" stroke-width="0.25" stroke-miterlimit="10"/>
<path d="M314.579 77.1305H316.096C316.14 78.4786 317.289 79.3838 318.99 79.3838C320.69 79.3838 321.737 78.7418 321.737 77.7467C321.737 76.925 321.014 76.4628 318.888 75.9878C316.178 75.3458 315.226 74.6333 315.226 73.1247C315.226 71.3657 316.743 70.1781 318.99 70.1781C319.828 70.1445 320.656 70.373 321.361 70.8325C322.066 71.2919 322.614 71.9601 322.93 72.746L321.458 73.1183C321.258 72.6398 320.916 72.2355 320.48 71.9609C320.044 71.6863 319.534 71.5547 319.021 71.584C317.752 71.584 316.876 72.1361 316.876 72.9706C316.876 73.6704 317.511 74.0555 319.262 74.4856C322.315 75.1276 323.368 75.9365 323.368 77.6377C323.368 79.5186 321.629 80.7896 319.021 80.7896C316.413 80.7896 314.63 79.3388 314.579 77.1305Z" stroke="black" stroke-width="0.25" stroke-miterlimit="10"/>
<path d="M324.879 66.5767H326.497V68.8299H324.879V66.5767ZM324.879 70.3835H326.497V80.6099H324.879V70.3835Z" stroke="black" stroke-width="0.25" stroke-miterlimit="10"/>
<path d="M328.921 70.3835H330.539V71.5262C330.839 71.1147 331.228 70.7788 331.678 70.5449C332.127 70.311 332.623 70.1855 333.129 70.1781C333.692 70.1997 334.243 70.3508 334.74 70.62C335.237 70.8892 335.667 71.2693 335.997 71.7316C336.356 71.2542 336.819 70.8661 337.349 70.5969C337.879 70.3276 338.463 70.1845 339.056 70.1781C341.277 70.1781 342.756 71.5262 342.756 73.5484V80.6099H341.137V73.7152C341.142 73.4229 341.086 73.133 340.973 72.8641C340.859 72.5952 340.691 72.3536 340.479 72.1549C340.267 71.9562 340.016 71.805 339.742 71.7111C339.469 71.6171 339.178 71.5825 338.891 71.6096C338.603 71.5825 338.313 71.6171 338.039 71.7111C337.766 71.805 337.515 71.9562 337.303 72.1549C337.091 72.3536 336.922 72.5952 336.809 72.8641C336.696 73.133 336.639 73.4229 336.644 73.7152V80.6099H335.026V73.7152C335.032 73.4232 334.976 73.1333 334.864 72.8645C334.751 72.5956 334.583 72.3539 334.372 72.1551C334.16 71.9564 333.91 71.805 333.636 71.711C333.363 71.617 333.073 71.5825 332.786 71.6096C332.498 71.5825 332.208 71.6171 331.934 71.7111C331.661 71.805 331.41 71.9562 331.198 72.1549C330.986 72.3536 330.818 72.5952 330.704 72.8641C330.591 73.133 330.534 73.4229 330.539 73.7152V80.6099H328.921V70.3835Z" stroke="black" stroke-width="0.25" stroke-miterlimit="10"/>
<path d="M345.18 70.3835H346.798V72.1232C347.223 71.5318 347.779 71.0495 348.421 70.715C349.064 70.3806 349.775 70.2032 350.498 70.1973C353.487 70.1973 355.492 72.3222 355.492 75.5127C355.492 78.7032 353.487 80.8346 350.498 80.8346C349.775 80.8286 349.064 80.6513 348.421 80.3168C347.779 79.9823 347.223 79.5 346.798 78.9087V84.4231H345.18V70.3835ZM353.874 75.5191C353.874 73.1888 352.459 71.6674 350.333 71.6674C348.207 71.6674 346.798 73.2209 346.798 75.5191C346.798 77.8173 348.213 79.4094 350.333 79.4094C352.452 79.4094 353.874 77.8237 353.874 75.4934V75.5191Z" stroke="black" stroke-width="0.25" stroke-miterlimit="10"/>
<path d="M357.231 66.5767H358.843V80.6099H357.231V66.5767Z" stroke="black" stroke-width="0.25" stroke-miterlimit="10"/>
<path d="M360.785 75.4934C360.785 72.2837 362.828 70.1781 365.862 70.1781C368.895 70.1781 370.938 72.3864 370.938 75.6604L370.773 75.8208H362.422C362.505 77.9521 363.882 79.3837 365.862 79.3837C366.567 79.4006 367.259 79.1919 367.841 78.7873C368.422 78.3827 368.862 77.8029 369.098 77.1305H370.716C370.415 78.196 369.777 79.1326 368.901 79.7978C368.025 80.463 366.957 80.8203 365.862 80.8153C362.809 80.8153 360.785 78.684 360.785 75.4934ZM369.219 74.3893C369.064 73.6042 368.645 72.8978 368.033 72.3908C367.42 71.8838 366.653 71.6076 365.862 71.6096C365.07 71.6076 364.303 71.8838 363.691 72.3908C363.078 72.8978 362.659 73.6042 362.505 74.3893H369.219Z" stroke="black" stroke-width="0.25" stroke-miterlimit="10"/>
</svg>
