<svg width="73" height="73" viewBox="0 0 73 73" fill="none" xmlns="http://www.w3.org/2000/svg">
<path d="M1.00457 69.3514C1.55691 68.1499 2.50874 67.7575 3.79927 67.8078C5.61608 67.879 7.43636 67.8252 9.32613 67.8252V66.957C9.32613 61.1126 9.32613 55.267 9.32613 49.4202C9.32613 47.6595 10.0921 46.8956 11.862 46.8956C16.275 46.8956 20.6885 46.8956 25.1026 46.8956H25.971V46.1403C25.971 43.0438 25.971 39.9485 25.971 36.8544C25.971 35.2223 26.7683 34.4235 28.3871 34.4235C32.9401 34.4235 37.4926 34.4235 42.0445 34.4235H42.8435V21.9376H39.6666C38.6731 21.9376 37.6796 21.9515 36.6861 21.929C35.802 21.9099 35.1228 21.5053 34.7616 20.6875C34.4003 19.8697 34.567 19.1092 35.1437 18.4303C35.2931 18.2566 35.4598 18.0934 35.6213 17.9302C40.78 12.7305 45.9404 7.53311 51.1025 2.33803C51.5975 1.84144 52.1898 1.44208 52.7369 0.99585H53.8451C54.3922 1.44208 54.981 1.84318 55.4761 2.33976C60.6301 7.51285 65.7737 12.6935 70.9068 17.8816C71.0805 18.0552 71.2699 18.2393 71.4279 18.4303C72.0046 19.1022 72.1748 19.861 71.8083 20.6875C71.4418 21.514 70.7661 21.9029 69.8873 21.9307C68.9632 21.9515 68.0392 21.9307 67.1082 21.9307H63.7212V67.82H64.5132C66.3162 67.82 68.1174 67.8026 69.9203 67.8304C70.1942 67.8265 70.4661 67.8773 70.7201 67.98C70.9741 68.0826 71.205 68.235 71.3992 68.4282C71.5934 68.6213 71.747 68.8514 71.8509 69.1048C71.9549 69.3581 72.0072 69.6297 72.0046 69.9036C72.0046 71.0391 71.1205 71.9247 69.9203 71.9872C69.6893 71.9976 69.4583 71.9872 69.2255 71.9872C47.4133 71.9872 25.6011 71.9929 3.78884 72.0045C2.50178 72.0045 1.54822 71.6573 0.994141 70.4609L1.00457 69.3514ZM59.5283 67.7887V66.8529C59.5283 51.3023 59.5283 35.7524 59.5283 20.2031C59.5283 18.5779 60.3273 17.7826 61.96 17.7722C62.8979 17.7722 63.8358 17.7722 64.9127 17.7722L53.3119 6.44617L41.7127 17.7722H44.3563C46.3225 17.7722 47.0398 18.4806 47.0398 20.427V67.7905L59.5283 67.7887ZM42.8539 38.6185H30.1744V67.7887H42.8539V38.6185ZM13.5156 67.7714H25.9102V51.087H13.5156V67.7714Z" fill="black"/>
</svg>
