<svg width="126" height="125" viewBox="0 0 126 125" fill="none" xmlns="http://www.w3.org/2000/svg">
<path d="M0.5 17C0.5 7.61116 8.11116 0 17.5 0H108.5C117.889 0 125.5 7.61116 125.5 17V108C125.5 117.389 117.889 125 108.5 125H17.5C8.11116 125 0.5 117.389 0.5 108V17Z" fill="#06FFF2"/>
<path d="M33.5682 57.5516C28.7477 52.655 30.1444 46.4066 33.6895 43.2265C35.4973 41.5759 37.8679 40.684 40.3124 40.7347C42.7569 40.7853 45.0888 41.7747 46.827 43.4988C50.2896 46.9026 51.2596 52.8252 46.6961 57.4932C47.6803 57.9451 48.6402 58.4482 49.5719 59.0006C50.472 59.6594 51.3379 60.3638 52.1664 61.111L54.8871 60.1774C51.5748 57.3133 49.8192 53.7782 50.1587 49.4019C50.2768 47.8121 50.7105 46.262 51.4342 44.8425C52.1579 43.423 53.157 42.1627 54.373 41.1356C56.7499 38.9926 59.871 37.8709 63.0644 38.0118C66.2579 38.1528 69.2685 39.5452 71.4484 41.8893C76.0992 46.8296 76.3805 54.848 70.1536 60.192L72.8451 61.1645C73.6746 60.4133 74.5422 59.7057 75.4445 59.0444C76.3869 58.4888 77.3582 57.984 78.3543 57.5322C76.1283 55.3294 74.9596 52.6258 75.3087 49.4117C75.5148 47.6183 76.216 45.9182 77.3335 44.5028C78.4511 43.0875 79.9405 42.013 81.6341 41.4005C83.3277 40.788 85.1582 40.6617 86.9195 41.0358C88.6808 41.41 90.303 42.2697 91.6034 43.5183C94.9593 46.7567 96.1571 52.8106 91.4239 57.6197C93.3716 58.2398 95.1248 59.3576 96.5112 60.863C98.4197 62.9226 99.4845 65.6275 99.4937 68.4389C99.4937 70.0435 99.4937 71.653 99.4937 73.2577C99.522 73.5955 99.4436 73.9337 99.2695 74.2243C99.0954 74.515 98.8345 74.7433 98.5238 74.8769C95.7203 76.3042 92.7188 77.3009 89.6199 77.8333C88.8633 77.9598 88.1311 77.9938 87.6413 77.2352C86.9963 76.2384 87.6413 75.2416 88.9506 74.8963C91.2348 74.2982 93.4802 73.5591 95.7401 72.8978C95.874 72.873 96.0016 72.8213 96.1152 72.746C96.2288 72.6706 96.3261 72.573 96.4012 72.4591C96.4764 72.3452 96.5278 72.2172 96.5526 72.0829C96.5773 71.9486 96.5747 71.8106 96.5451 71.6773C96.453 70.1359 96.5839 68.5701 96.3511 67.0579C96.0582 65.161 95.1054 63.4291 93.6613 62.1689C92.2172 60.9088 90.375 60.2016 88.4608 60.1725C85.7548 60.119 83.0438 60.119 80.3426 60.2795C78.5654 60.4365 76.9137 61.2637 75.7209 62.5941C76.5502 63.5034 77.3698 64.3397 78.1166 65.2393C80.4184 68.0268 81.6148 71.567 81.4774 75.1832C81.4774 77.0067 81.4774 78.8302 81.5016 80.6536C81.5582 81.0536 81.4815 81.4611 81.2833 81.8129C81.0851 82.1646 80.7765 82.4408 80.4056 82.5986C68.4433 88.531 56.4907 88.505 44.5477 82.5208C44.2948 82.3751 44.0768 82.1754 43.9092 81.936C43.7416 81.6965 43.6285 81.4231 43.5778 81.135C43.5051 78.6405 43.5099 76.1314 43.6408 73.6369C43.8688 69.3676 45.7553 65.9006 49.0142 63.1727C49.1112 63.09 49.2082 63.0122 49.2955 62.9296C49.3447 62.867 49.3885 62.8003 49.4264 62.7302C48.7191 61.9544 47.8635 61.3291 46.9105 60.8914C45.9574 60.4537 44.9263 60.2125 43.8785 60.1822C41.3858 60.1044 38.8882 60.0996 36.3955 60.1822C34.3135 60.2813 32.3451 61.1629 30.8821 62.6515C29.4191 64.14 28.5688 66.1264 28.5004 68.2152C28.4713 69.4211 28.5004 70.6465 28.4762 71.8329C28.4342 72.0454 28.4766 72.266 28.5943 72.4476C28.7121 72.6292 28.8959 72.7576 29.1066 72.8054C31.4587 73.5056 33.8059 74.2253 36.1628 74.9012C36.866 75.1006 37.5498 75.3583 37.5449 76.1509C37.5065 76.7059 37.2767 77.2302 36.8951 77.6339C36.5327 77.8575 36.0972 77.9291 35.6827 77.8333C32.4189 77.3519 29.2634 76.3054 26.3569 74.7407C26.1512 74.621 25.9743 74.4575 25.8385 74.2618C25.7028 74.066 25.6115 73.8428 25.5713 73.6078C25.5276 71.4196 25.3918 69.1974 25.6731 67.0384C26.255 62.56 28.8108 59.5063 33.0008 57.8385C33.1415 57.7801 33.2869 57.7266 33.4276 57.6634C33.478 57.6309 33.5252 57.5934 33.5682 57.5516ZM78.5095 76.4183H78.4513C78.4513 75.7376 78.4513 75.0617 78.4513 74.3809C78.4353 71.3571 77.2401 68.4596 75.1213 66.3079C73.0025 64.1561 70.1282 62.9209 67.1129 62.8664C64.0383 62.8242 60.9668 62.8242 57.8987 62.8664C52.5641 62.9344 47.7145 66.8488 46.8464 72.1344C46.4294 74.6338 46.5991 77.2352 46.5652 79.7929C46.5652 80.0312 46.9628 80.3716 47.2441 80.5077C52.033 82.805 57.2759 83.993 62.5846 83.9837C67.8934 83.9745 73.1321 82.7682 77.913 80.4542C78.0762 80.3456 78.2135 80.202 78.315 80.0339C78.4164 79.8657 78.4795 79.6772 78.4997 79.4817C78.5579 78.4606 78.5095 77.454 78.5095 76.4183ZM62.5058 40.9216C60.638 40.9187 58.8114 41.4716 57.2572 42.5103C55.703 43.5489 54.4912 45.0266 53.7751 46.7563C53.059 48.4859 52.8709 50.3897 53.2346 52.2266C53.5982 54.0635 54.4973 55.7509 55.818 57.0752C57.1388 58.3994 58.8217 59.301 60.6537 59.6656C62.4857 60.0303 64.3844 59.8416 66.1095 59.1236C67.8345 58.4056 69.3083 57.1905 70.3441 55.6322C71.38 54.0738 71.9314 52.2423 71.9285 50.3696C71.8898 47.8803 70.8859 45.5039 69.1298 43.7439C67.3736 41.984 65.003 40.9787 62.5203 40.9411L62.5058 40.9216ZM40.0764 57.0653C41.4 57.0682 42.6947 56.6766 43.7959 55.9402C44.8971 55.2038 45.7552 54.1559 46.2613 52.9295C46.7673 51.7032 46.8985 50.3537 46.6381 49.0525C46.3778 47.7512 45.7376 46.5569 44.7989 45.6212C43.8602 44.6855 42.6654 44.0506 41.3661 43.7971C40.0668 43.5436 38.7217 43.683 37.5016 44.1976C36.2815 44.7122 35.2414 45.5787 34.5134 46.6871C33.7855 47.7956 33.4025 49.0959 33.413 50.4231C33.4283 52.191 34.1379 53.8817 35.3879 55.1287C36.6379 56.3756 38.3277 57.0784 40.091 57.0848L40.0764 57.0653ZM84.8139 57.0653C86.1373 57.0769 87.4343 56.6939 88.5402 55.965C89.6461 55.2361 90.5111 54.1942 91.0253 52.9715C91.5395 51.7488 91.6798 50.4005 91.4284 49.0977C91.1769 47.7949 90.5451 46.5964 89.613 45.6543C88.681 44.7122 87.4908 44.0691 86.1935 43.8065C84.8962 43.5439 83.5504 43.6738 82.3269 44.1795C81.1033 44.6853 80.0573 45.5442 79.3215 46.6472C78.5857 47.7501 78.1933 49.0475 78.1942 50.3744C78.1941 52.1441 78.8913 53.8421 80.1338 55.0989C81.3763 56.3556 83.0636 57.0694 84.8285 57.0848L84.8139 57.0653Z" fill="black"/>
</svg>
