<svg width="125" height="125" viewBox="0 0 125 125" fill="none" xmlns="http://www.w3.org/2000/svg">
<path d="M0 17C0 7.61116 7.61116 0 17 0H108C117.389 0 125 7.61116 125 17V108C125 117.389 117.389 125 108 125H17C7.61116 125 0 117.389 0 108V17Z" fill="#06FFF2"/>
<path d="M93.9954 67.7579C93.9954 66.0987 93.6161 65.6943 91.966 65.5931C88.5654 65.3817 85.8046 64.3017 83.5146 62.2932C83.3621 62.1857 83.2397 62.0403 83.1596 61.8711C83.0795 61.702 83.0444 61.5149 83.0576 61.328C83.0759 52.5679 83.0759 43.8093 83.0576 35.0523V30.2356C83.0576 27.9376 82.1434 27.0184 79.858 27.0184H33.1904C30.905 27.0184 29.9909 27.9376 29.9909 30.2356V95.0401C29.9909 96.9705 31.0101 97.9908 32.9253 97.9908H80.0911C82.0612 97.9908 83.0712 96.9889 83.0804 95.0126C83.0804 93.4177 83.0804 91.9838 83.0804 90.5314C83.0804 90.4441 83.0804 90.4073 83.0804 90.4027C83.1246 90.3741 83.1704 90.348 83.2175 90.3246C84.4014 89.796 85.6766 89.1939 87.1118 88.4861C91.6506 86.2616 93.968 82.5986 93.968 77.5889C93.968 75.2909 93.968 72.9928 93.968 70.6948L93.9954 67.7579ZM32.9025 95.0861C32.9025 94.9804 32.9025 94.8471 32.9025 94.723V30.2724C32.9025 30.1529 32.9025 30.0196 32.9025 29.9139H80.1597V36.8448C80.1597 45.0411 80.1597 53.2359 80.1597 61.4291C80.1732 61.5899 80.1444 61.7514 80.0762 61.8974C80.0081 62.0434 79.9028 62.1688 79.7712 62.261C77.4446 64.3108 74.6565 65.4001 71.2558 65.5931C69.6423 65.6851 69.2492 66.0987 69.2492 67.7074V70.5707C69.2492 72.9193 69.2492 75.2724 69.2492 77.621C69.2766 82.6078 71.5712 86.2571 76.0734 88.4678C77.2115 89.0285 78.5645 89.6857 79.9769 90.3062C80.1597 90.3843 80.1597 90.3843 80.1551 90.6371C80.1186 92.2963 80.1186 93.6521 80.1551 94.9069C80.1604 94.9696 80.1604 95.0326 80.1551 95.0953H79.9448C76.6265 95.0953 73.267 95.0953 69.9531 95.0953H32.8887L32.9025 95.0861ZM80.8133 87.4612C79.4649 86.8545 78.0709 86.2249 76.7682 85.5171C75.382 84.8317 74.217 83.7656 73.4082 82.4423C72.5993 81.119 72.1795 79.5925 72.1974 78.0393C72.138 75.7413 72.1517 73.4432 72.1654 71.0211C72.1654 70.1754 72.1654 69.3252 72.1654 68.4703C75.9454 68.0888 79.0536 66.7973 81.6315 64.5361C84.2862 66.8363 87.6069 68.2158 91.1021 68.4703C91.1021 69.3895 91.1021 70.3087 91.1021 71.1957C91.1021 73.4386 91.1341 75.7596 91.0747 78.0301C90.9833 81.4312 89.4018 83.9774 86.3668 85.5998C85.0413 86.3076 83.6243 86.9373 82.2531 87.5486L81.796 87.7646C81.6871 87.7966 81.5713 87.7966 81.4624 87.7646L80.8133 87.4612Z" fill="black"/>
<path d="M40.266 44.9936H72.9744C74.3457 44.9936 74.8576 44.465 74.8622 43.1092V34.6387C74.8622 33.1679 74.4051 32.6991 72.8876 32.6945H40.1928C38.7119 32.6945 38.2365 33.1541 38.232 34.6524C38.232 37.4101 38.232 40.1831 38.232 42.9713C38.2182 44.5248 38.6982 44.9936 40.266 44.9936ZM41.1801 42.0061V35.6958H71.8774V42.0245L41.1801 42.0061Z" fill="black"/>
<path d="M67.1604 55.7897C67.2533 55.7949 67.3464 55.7949 67.4392 55.7897C67.6653 55.7998 67.8884 55.7352 68.0746 55.6059C68.3094 55.4762 68.513 55.2961 68.671 55.0785C68.8289 54.8609 68.9374 54.611 68.9887 54.3466C69.0436 53.7721 68.5317 53.2987 68.0746 52.9999C67.7972 52.8427 67.4739 52.7874 67.1604 52.8437H40.1015C39.7869 52.7827 39.461 52.8416 39.1873 53.0091C38.9533 53.1411 38.7504 53.3223 38.5926 53.5405C38.4348 53.7586 38.3259 54.0085 38.2731 54.273C38.232 54.7326 38.5337 55.1923 39.1873 55.6151C39.4632 55.7766 39.788 55.8321 40.1015 55.7714H67.0142L67.1604 55.7897Z" fill="black"/>
<path d="M39.0227 51.6027C39.1596 51.7067 39.3161 51.7816 39.4827 51.8226C39.6493 51.8637 39.8226 51.8702 39.9917 51.8417H57.6532C57.8735 51.8498 58.0914 51.7922 58.2794 51.6763C58.66 51.4545 58.9585 51.114 59.1296 50.7065C59.2018 50.4473 59.197 50.1726 59.1157 49.9162C59.0345 49.6597 58.8804 49.4328 58.6725 49.2633C58.3062 49.0317 57.8802 48.9134 57.4475 48.9232C55.1682 48.9232 52.8828 48.9232 50.5913 48.9232H40.2385C40.1899 48.9278 40.1409 48.9278 40.0923 48.9232C39.7951 48.8762 39.4907 48.9261 39.2238 49.0657C38.8033 49.3185 38.3097 49.7367 38.3097 50.2975C38.3369 50.5516 38.4139 50.7978 38.5363 51.0218C38.6587 51.2459 38.824 51.4433 39.0227 51.6027Z" fill="black"/>
<path d="M39.8409 59.7607C39.9323 59.7607 40.0192 59.7607 40.0969 59.7607H57.2144C57.2616 59.7571 57.309 59.7571 57.3561 59.7607C57.6712 59.8128 57.9945 59.7527 58.2703 59.5907C58.8645 59.1816 59.1844 58.7496 59.1844 58.3084C59.1844 57.8672 58.8965 57.4259 58.3205 57.0031C58.0476 56.8337 57.7226 56.77 57.4064 56.8239H40.0511C39.7332 56.7737 39.408 56.8424 39.137 57.0169C38.9083 57.1596 38.7153 57.3531 38.5726 57.5826C38.43 57.8121 38.3416 58.0714 38.3142 58.3406C38.3142 58.8002 38.6342 59.2046 39.2284 59.5999C39.4133 59.7107 39.6257 59.7664 39.8409 59.7607Z" fill="black"/>
<path d="M53.407 65.5058C53.2058 65.3036 53.0047 65.1014 52.7944 64.9129C52.6907 64.8284 52.5699 64.7677 52.4404 64.7352C52.3109 64.7026 52.1759 64.699 52.0449 64.7245H39.946C39.799 64.7008 39.6488 64.7091 39.5053 64.7488C39.3618 64.7884 39.2284 64.8585 39.1141 64.9543L39.0136 65.0508C38.6386 65.3237 38.3805 65.7294 38.2914 66.1861C38.2502 66.6457 38.5656 67.1052 39.2055 67.5143C39.4832 67.671 39.8056 67.7277 40.1197 67.6752H51.7889C51.8757 67.6752 51.9763 67.6752 52.086 67.6752C52.3038 67.6838 52.5195 67.6295 52.7076 67.5189C52.9772 67.345 53.2178 67.1294 53.4206 66.88L53.6218 66.6686C53.7504 66.5386 53.8227 66.3626 53.8227 66.1791C53.8227 65.9957 53.7504 65.8197 53.6218 65.6897L53.407 65.5058Z" fill="black"/>
<path d="M59.6049 76.1135C58.7089 76.0101 57.8041 76.0101 56.9081 76.1135C56.5763 76.1928 56.2778 76.3754 56.0554 76.6354C55.8329 76.8955 55.6978 77.2195 55.6695 77.5613C55.6695 78.1864 56.346 78.7425 56.8213 78.9034C57.1751 79.0024 57.545 79.0289 57.9092 78.9815C58.0189 78.9815 58.1285 78.9815 58.2337 78.9815C58.3388 78.9815 58.444 78.9815 58.5537 78.9815C58.6634 78.9815 58.8279 78.9815 58.9696 78.9815C59.1957 78.9849 59.4209 78.9523 59.6369 78.8849C60.094 78.7333 60.7842 78.2185 60.8162 77.5797C60.7926 77.2385 60.6629 76.9134 60.4456 76.6503C60.2282 76.3872 59.9341 76.1994 59.6049 76.1135Z" fill="black"/>
<path d="M50.1983 76.1043C49.3035 76.0056 48.4008 76.0056 47.5061 76.1043C46.8479 76.1825 46.3542 77.0236 46.3131 77.5245C46.2674 78.1496 46.953 78.7517 47.4421 78.9034C47.8052 78.9929 48.1811 79.0178 48.5528 78.9769C48.6411 78.9723 48.7296 78.9723 48.8179 78.9769C48.9459 78.9769 49.083 78.9769 49.2201 78.9769C49.3572 78.9769 49.4898 78.9769 49.6361 78.9769C49.8642 78.9829 50.0916 78.9487 50.308 78.8758C50.765 78.7103 51.4461 78.1496 51.4461 77.497C51.405 77.1643 51.2633 76.8522 51.0402 76.6032C50.817 76.3541 50.5231 76.18 50.1983 76.1043Z" fill="black"/>
<path d="M38.072 78.8988C38.4358 78.9844 38.8113 79.0077 39.1827 78.9677H39.457C39.5849 78.9677 39.7129 78.9677 39.8455 78.9677C39.978 78.9677 40.1152 78.9677 40.2614 78.9677C40.4894 78.9714 40.7164 78.9373 40.9333 78.8666C41.3904 78.7057 42.0577 78.145 42.0577 77.5153C42.0294 77.1759 41.8954 76.8542 41.6746 76.5958C41.4538 76.3375 41.1576 76.1559 40.8282 76.0768C39.935 75.978 39.0338 75.978 38.1406 76.0768C37.4824 76.1549 36.9888 76.996 36.9568 77.4924C36.9111 78.1588 37.5875 78.7609 38.072 78.8988Z" fill="black"/>
<path d="M67.4713 76.0538H66.621C65.4601 76.0538 65.0305 76.7892 65.0168 77.4832C65.0031 77.6788 65.031 77.8751 65.0988 78.059C65.1666 78.2428 65.2727 78.4101 65.4098 78.5495C65.57 78.6975 65.7582 78.8116 65.9631 78.885C66.1681 78.9585 66.3856 78.9897 66.6028 78.9769H67.517C67.7126 78.9956 67.91 78.9727 68.0963 78.9096C68.2825 78.8465 68.4535 78.7446 68.5979 78.6106C68.7424 78.4766 68.8572 78.3135 68.9348 78.1319C69.0124 77.9503 69.051 77.7543 69.0482 77.5567C69.0344 76.6513 68.4403 76.0768 67.4713 76.0538Z" fill="black"/>
<path d="M88.2225 71.0441C88.0967 70.8968 87.9421 70.7772 87.7683 70.6926C87.5945 70.608 87.4053 70.5603 87.2124 70.5523H87.185C86.9583 70.5632 86.7361 70.6202 86.5319 70.7197C86.3277 70.8192 86.1455 70.9592 85.9966 71.1314L84.2734 72.8595L81.5309 75.6172L79.6706 77.5107L79.2592 77.9336L79.0125 77.6808C78.4183 77.0695 77.8515 76.495 77.2938 75.9113C76.9852 75.5539 76.5513 75.3301 76.0826 75.2863C75.8948 75.2905 75.7098 75.3334 75.5392 75.4125C75.3686 75.4916 75.2159 75.605 75.0907 75.7459C74.9506 75.8766 74.8379 76.0343 74.7594 76.2095C74.6809 76.3848 74.6382 76.574 74.6336 76.7662C74.6451 76.9969 74.7029 77.2229 74.8034 77.4306C74.9039 77.6384 75.0452 77.8235 75.2187 77.9749C76.174 78.9309 77.1338 79.8869 78.0754 80.8521C78.2251 81.0246 78.408 81.1648 78.613 81.2643C78.818 81.3639 79.041 81.4206 79.2684 81.4312C79.4962 81.4213 79.7196 81.3653 79.9254 81.2666C80.1311 81.1679 80.315 81.0285 80.4659 80.8567C82.9951 78.3043 85.5258 75.7581 88.058 73.218C88.8807 72.3724 88.6796 71.545 88.2225 71.0441Z" fill="black"/>
</svg>
